<svg width="124" height="90" viewBox="0 0 124 90" fill="none" xmlns="http://www.w3.org/2000/svg">
<path d="M120.023 0L27.9216 0C26.257 0 24.8143 1.04284 24.2409 2.514C24.056 2.97955 24 3.45996 24 4V29.5C24 30.8807 22.8807 32 21.5 32H21C19.8954 32 19 31.1046 19 30C19 28.8954 18.1046 28 17 28H3C1.34315 28 0 29.3391 0 30.996C0 34.779 0 41.2931 0 45.44C0 49.5025 0 55.4505 0 59.0026C0 60.6595 1.34315 62 3 62H17.0166C18.1211 62 19.0166 61.1046 19.0166 60C19.0166 58.8954 19.9123 58 21.0168 58C21.1833 58 21.3477 58 21.5086 58C22.8847 58 24 59.1156 24 60.4917V72V86C24 86.5214 24.056 86.9656 24.2409 87.4312C24.8143 88.9024 26.2554 90 27.92 90L119.897 90C122.098 90 124 88.1575 124 85.9414L124 4.00377C124 1.78773 122.224 0 120.023 0Z" fill="#B5F9AD"/>
<rect x="31" y="7" width="86" height="76" rx="5" stroke="white" stroke-width="2"/>
<path d="M58.498 50.644C58.126 50.644 57.838 50.542 57.634 50.338C57.442 50.122 57.346 49.828 57.346 49.456V39.736H52.81V42.256C52.81 43.348 52.738 44.32 52.594 45.172C52.45 46.024 52.24 46.78 51.964 47.44C51.7 48.1 51.364 48.676 50.956 49.168C50.56 49.66 50.104 50.086 49.588 50.446C49.324 50.638 49.054 50.704 48.778 50.644C48.502 50.596 48.262 50.44 48.058 50.176C47.866 49.9 47.8 49.63 47.86 49.366C47.932 49.102 48.106 48.874 48.382 48.682C48.766 48.418 49.102 48.094 49.39 47.71C49.678 47.326 49.918 46.858 50.11 46.306C50.302 45.754 50.446 45.1 50.542 44.344C50.638 43.576 50.686 42.682 50.686 41.662V39.034C50.686 38.638 50.788 38.338 50.992 38.134C51.208 37.918 51.514 37.81 51.91 37.81H58.426C58.822 37.81 59.122 37.918 59.326 38.134C59.542 38.338 59.65 38.638 59.65 39.034V49.456C59.65 49.828 59.548 50.122 59.344 50.338C59.152 50.542 58.87 50.644 58.498 50.644ZM62.5472 50.644C62.2592 50.644 62.0252 50.578 61.8452 50.446C61.6772 50.314 61.5752 50.14 61.5392 49.924C61.5032 49.696 61.5452 49.444 61.6652 49.168L66.4172 38.638C66.5732 38.29 66.7592 38.044 66.9752 37.9C67.2032 37.744 67.4612 37.666 67.7492 37.666C68.0252 37.666 68.2712 37.744 68.4872 37.9C68.7152 38.044 68.9072 38.29 69.0632 38.638L73.8332 49.168C73.9652 49.444 74.0132 49.696 73.9772 49.924C73.9412 50.152 73.8392 50.332 73.6712 50.464C73.5032 50.584 73.2812 50.644 73.0052 50.644C72.6692 50.644 72.4052 50.566 72.2132 50.41C72.0332 50.242 71.8712 49.99 71.7272 49.654L70.5572 46.936L71.5292 47.566H63.9332L64.9052 46.936L63.7532 49.654C63.5972 50.002 63.4352 50.254 63.2672 50.41C63.0992 50.566 62.8592 50.644 62.5472 50.644ZM67.7132 40.312L65.1932 46.306L64.7252 45.73H70.7372L70.2872 46.306L67.7492 40.312H67.7132ZM76.9677 50.644C76.5957 50.644 76.3077 50.542 76.1037 50.338C75.9117 50.122 75.8157 49.828 75.8157 49.456V38.836C75.8157 38.452 75.9117 38.164 76.1037 37.972C76.3077 37.768 76.5957 37.666 76.9677 37.666C77.3397 37.666 77.6217 37.768 77.8137 37.972C78.0177 38.164 78.1197 38.452 78.1197 38.836V43.192H80.1717L79.7217 43.498L83.0337 38.26C83.2017 38.008 83.3937 37.84 83.6097 37.756C83.8377 37.672 84.0597 37.654 84.2757 37.702C84.4917 37.75 84.6777 37.852 84.8337 38.008C84.9897 38.164 85.0737 38.356 85.0857 38.584C85.1097 38.812 85.0377 39.058 84.8697 39.322L81.8457 43.948L80.9457 43.282C81.7257 43.402 82.3857 43.684 82.9257 44.128C83.4657 44.572 83.9277 45.19 84.3117 45.982L85.7877 49.006C85.9437 49.306 85.9917 49.576 85.9317 49.816C85.8837 50.056 85.7637 50.248 85.5717 50.392C85.3917 50.524 85.1817 50.602 84.9417 50.626C84.7137 50.65 84.4857 50.608 84.2577 50.5C84.0417 50.38 83.8677 50.182 83.7357 49.906L82.3137 46.846C82.0257 46.222 81.6777 45.778 81.2697 45.514C80.8737 45.25 80.3757 45.118 79.7757 45.118H78.1197V49.456C78.1197 49.828 78.0237 50.122 77.8317 50.338C77.6397 50.542 77.3517 50.644 76.9677 50.644ZM87.8245 50.644C87.5365 50.644 87.3025 50.578 87.1225 50.446C86.9545 50.314 86.8525 50.14 86.8165 49.924C86.7805 49.696 86.8225 49.444 86.9425 49.168L91.6945 38.638C91.8505 38.29 92.0365 38.044 92.2525 37.9C92.4805 37.744 92.7385 37.666 93.0265 37.666C93.3025 37.666 93.5485 37.744 93.7645 37.9C93.9925 38.044 94.1845 38.29 94.3405 38.638L99.1105 49.168C99.2425 49.444 99.2905 49.696 99.2545 49.924C99.2185 50.152 99.1165 50.332 98.9485 50.464C98.7805 50.584 98.5585 50.644 98.2825 50.644C97.9465 50.644 97.6825 50.566 97.4905 50.41C97.3105 50.242 97.1485 49.99 97.0045 49.654L95.8345 46.936L96.8065 47.566H89.2105L90.1825 46.936L89.0305 49.654C88.8745 50.002 88.7125 50.254 88.5445 50.41C88.3765 50.566 88.1365 50.644 87.8245 50.644ZM92.9905 40.312L90.4705 46.306L90.0025 45.73H96.0145L95.5645 46.306L93.0265 40.312H92.9905Z" fill="#0F5707"/>
</svg>
