<svg width="124" height="90" viewBox="0 0 124 90" fill="none" xmlns="http://www.w3.org/2000/svg">
<path d="M3.98041 90H95.5853C97.2515 90 98.8761 89.222 99.45 87.75C99.6351 87.2842 100 86.5404 100 86V76V74V71V69V68V66C100 65.6544 100 65.3194 100 65C100 63.3431 101.344 62 103.001 62C103.569 62 103.992 62 104 62C114.886 62 124 54.5217 124 45C124 35.4969 114.886 28 104 28C103.646 28 103.312 28 102.999 28C101.342 28 100 26.6569 100 25C100 24.6801 100 24.3449 100 24V19V13.5V8.5V4.5C100 4.05 99.6351 3.16584 99.45 2.7C98.8761 1.22795 97.2515 0 95.5853 0H3.98041C1.7773 0 0 1.78883 0 4.00622L0 85.9938C0 88.2112 1.7773 90 3.98041 90Z" fill="#B5F9AD"/>
<rect x="7" y="7" width="86" height="76" rx="5" stroke="white" stroke-width="2"/>
<path d="M41.038 50.644C40.666 50.644 40.378 50.542 40.174 50.338C39.982 50.122 39.886 49.828 39.886 49.456V38.98C39.886 38.596 39.988 38.308 40.192 38.116C40.396 37.912 40.684 37.81 41.056 37.81H45.394C46.786 37.81 47.86 38.158 48.616 38.854C49.372 39.55 49.75 40.522 49.75 41.77C49.75 43.018 49.372 43.996 48.616 44.704C47.86 45.4 46.786 45.748 45.394 45.748H42.19V49.456C42.19 49.828 42.094 50.122 41.902 50.338C41.71 50.542 41.422 50.644 41.038 50.644ZM42.19 43.93H45.034C45.85 43.93 46.468 43.75 46.888 43.39C47.308 43.018 47.518 42.478 47.518 41.77C47.518 41.062 47.308 40.528 46.888 40.168C46.468 39.808 45.85 39.628 45.034 39.628H42.19V43.93ZM52.8522 50.5C52.4562 50.5 52.1502 50.398 51.9342 50.194C51.7302 49.978 51.6282 49.672 51.6282 49.276V39.034C51.6282 38.638 51.7302 38.338 51.9342 38.134C52.1502 37.918 52.4562 37.81 52.8522 37.81H59.2782C59.5782 37.81 59.8062 37.888 59.9622 38.044C60.1302 38.2 60.2142 38.422 60.2142 38.71C60.2142 39.01 60.1302 39.244 59.9622 39.412C59.8062 39.568 59.5782 39.646 59.2782 39.646H53.8422V43.138H58.8822C59.1942 43.138 59.4282 43.216 59.5842 43.372C59.7402 43.528 59.8182 43.756 59.8182 44.056C59.8182 44.356 59.7402 44.584 59.5842 44.74C59.4282 44.896 59.1942 44.974 58.8822 44.974H53.8422V48.664H59.2782C59.5782 48.664 59.8062 48.742 59.9622 48.898C60.1302 49.054 60.2142 49.282 60.2142 49.582C60.2142 49.882 60.1302 50.11 59.9622 50.266C59.8062 50.422 59.5782 50.5 59.2782 50.5H52.8522Z" fill="#0F5707"/>
</svg>
