<svg width="124" height="90" viewBox="0 0 124 90" fill="none" xmlns="http://www.w3.org/2000/svg">
<path d="M4.003 90H96.1279C97.8036 90 99.2558 88.9565 99.833 87.4845C100.019 87.0186 100 86.5404 100 86V76V67.3613C100 66.4962 100.373 65.6732 101.024 65.1036L121.42 47.2577C122.786 46.0625 122.786 43.9375 121.42 42.7423L101.024 24.8964C100.373 24.3268 100 23.5038 100 22.6387V21V18V14V9V7V6.5V5.5V5V4C100 3.47826 100.019 2.98137 99.833 2.51553C99.2558 1.04349 97.8036 0 96.1279 0H4.003C1.78739 0 0 1.78882 0 4.00621L0 85.9938C0 88.2112 1.78739 90 4.003 90Z" fill="#B5F9AD"/>
<rect x="7" y="7" width="86" height="76" rx="5" stroke="white" stroke-width="2"/>
<path d="M43.79 50.68C42.47 50.68 41.336 50.416 40.388 49.888C39.452 49.348 38.732 48.592 38.228 47.62C37.724 46.636 37.472 45.478 37.472 44.146C37.472 43.15 37.616 42.256 37.904 41.464C38.192 40.66 38.606 39.976 39.146 39.412C39.686 38.836 40.346 38.398 41.126 38.098C41.918 37.786 42.806 37.63 43.79 37.63C44.45 37.63 45.098 37.714 45.734 37.882C46.37 38.05 46.928 38.29 47.408 38.602C47.66 38.758 47.828 38.95 47.912 39.178C47.996 39.394 48.014 39.61 47.966 39.826C47.918 40.03 47.816 40.204 47.66 40.348C47.516 40.492 47.33 40.576 47.102 40.6C46.886 40.612 46.646 40.534 46.382 40.366C46.01 40.126 45.608 39.952 45.176 39.844C44.744 39.736 44.306 39.682 43.862 39.682C43.01 39.682 42.29 39.856 41.702 40.204C41.114 40.552 40.67 41.056 40.37 41.716C40.07 42.376 39.92 43.186 39.92 44.146C39.92 45.094 40.07 45.904 40.37 46.576C40.67 47.248 41.114 47.758 41.702 48.106C42.29 48.454 43.01 48.628 43.862 48.628C44.318 48.628 44.768 48.574 45.212 48.466C45.656 48.346 46.076 48.166 46.472 47.926C46.736 47.77 46.97 47.704 47.174 47.728C47.39 47.74 47.57 47.812 47.714 47.944C47.858 48.076 47.954 48.244 48.002 48.448C48.05 48.64 48.038 48.844 47.966 49.06C47.894 49.264 47.75 49.444 47.534 49.6C47.054 49.948 46.478 50.218 45.806 50.41C45.146 50.59 44.474 50.68 43.79 50.68ZM55.5799 50.68C54.3559 50.68 53.2819 50.41 52.3579 49.87C51.4459 49.33 50.7379 48.574 50.2339 47.602C49.7299 46.618 49.4779 45.466 49.4779 44.146C49.4779 43.15 49.6219 42.256 49.9099 41.464C50.1979 40.66 50.6059 39.976 51.1339 39.412C51.6739 38.836 52.3159 38.398 53.0599 38.098C53.8159 37.786 54.6559 37.63 55.5799 37.63C56.8159 37.63 57.8899 37.9 58.8019 38.44C59.7139 38.968 60.4219 39.718 60.9259 40.69C61.4299 41.662 61.6819 42.808 61.6819 44.128C61.6819 45.124 61.5379 46.024 61.2499 46.828C60.9619 47.632 60.5479 48.322 60.0079 48.898C59.4799 49.474 58.8379 49.918 58.0819 50.23C57.3379 50.53 56.5039 50.68 55.5799 50.68ZM55.5799 48.7C56.3599 48.7 57.0199 48.52 57.5599 48.16C58.1119 47.8 58.5319 47.278 58.8199 46.594C59.1199 45.91 59.2699 45.094 59.2699 44.146C59.2699 42.706 58.9459 41.59 58.2979 40.798C57.6619 40.006 56.7559 39.61 55.5799 39.61C54.8119 39.61 54.1519 39.79 53.5999 40.15C53.0479 40.498 52.6219 41.014 52.3219 41.698C52.0339 42.37 51.8899 43.186 51.8899 44.146C51.8899 45.574 52.2139 46.69 52.8619 47.494C53.5099 48.298 54.4159 48.7 55.5799 48.7Z" fill="#0F5707"/>
</svg>
