<svg width="100" height="90" viewBox="0 0 100 90" fill="none" xmlns="http://www.w3.org/2000/svg">
<path d="M-0.00390625 66C-0.00390625 65.6544 -0.00390625 65.3194 -0.00390625 65C-0.00390625 63.3431 1.33816 62 2.99502 62C3.2979 62 3.63137 62 3.99851 62C15.0059 62 23.9935 54.5217 23.9935 45C23.9935 35.4969 15.0035 28 3.99609 28C3.99609 28 3.57292 28 3.00191 28C1.34391 28 -0.00326461 26.6552 -0.00373342 24.9972C-0.00384058 24.6182 -0.00390625 24.2209 -0.00390625 23.8164L-0.00390625 4C-0.00390625 3.47826 0.0164873 3.07453 0.20337 2.51553C0.390252 1.95652 1.77318 0 3.47381 0H95.9245C98.1484 0 99.9985 1.78883 99.9985 4.00622V85.9938C99.9985 88.2112 98.1484 90 95.9245 90H3.47381C1.77318 90 0.483693 88.1366 0.296811 87.4845C0.109929 86.8323 -0.00390625 86.5404 -0.00390625 86L-0.00390625 66Z" fill="#B5F9AD"/>
<rect x="30.9961" y="7" width="62" height="76" rx="5" stroke="white" stroke-width="2"/>
<path d="M51.5341 50.644C51.1621 50.644 50.8741 50.542 50.6701 50.338C50.4781 50.122 50.3821 49.828 50.3821 49.456V38.836C50.3821 38.452 50.4781 38.164 50.6701 37.972C50.8741 37.768 51.1621 37.666 51.5341 37.666C51.9061 37.666 52.1881 37.768 52.3801 37.972C52.5841 38.164 52.6861 38.452 52.6861 38.836V43.192H54.7381L54.2881 43.498L57.6001 38.26C57.7681 38.008 57.9601 37.84 58.1761 37.756C58.4041 37.672 58.6261 37.654 58.8421 37.702C59.0581 37.75 59.2441 37.852 59.4001 38.008C59.5561 38.164 59.6401 38.356 59.6521 38.584C59.6761 38.812 59.6041 39.058 59.4361 39.322L56.4121 43.948L55.5121 43.282C56.2921 43.402 56.9521 43.684 57.4921 44.128C58.0321 44.572 58.4941 45.19 58.8781 45.982L60.3541 49.006C60.5101 49.306 60.5581 49.576 60.4981 49.816C60.4501 50.056 60.3301 50.248 60.1381 50.392C59.9581 50.524 59.7481 50.602 59.5081 50.626C59.2801 50.65 59.0521 50.608 58.8241 50.5C58.6081 50.38 58.4341 50.182 58.3021 49.906L56.8801 46.846C56.5921 46.222 56.2441 45.778 55.8361 45.514C55.4401 45.25 54.9421 45.118 54.3421 45.118H52.6861V49.456C52.6861 49.828 52.5901 50.122 52.3981 50.338C52.2061 50.542 51.9181 50.644 51.5341 50.644ZM62.3909 50.644C62.1029 50.644 61.8689 50.578 61.6889 50.446C61.5209 50.314 61.4189 50.14 61.3829 49.924C61.3469 49.696 61.3889 49.444 61.5089 49.168L66.2609 38.638C66.4169 38.29 66.6029 38.044 66.8189 37.9C67.0469 37.744 67.3049 37.666 67.5929 37.666C67.8689 37.666 68.1149 37.744 68.3309 37.9C68.5589 38.044 68.7509 38.29 68.9069 38.638L73.6769 49.168C73.8089 49.444 73.8569 49.696 73.8209 49.924C73.7849 50.152 73.6829 50.332 73.5149 50.464C73.3469 50.584 73.1249 50.644 72.8489 50.644C72.5129 50.644 72.2489 50.566 72.0569 50.41C71.8769 50.242 71.7149 49.99 71.5709 49.654L70.4009 46.936L71.3729 47.566H63.7769L64.7489 46.936L63.5969 49.654C63.4409 50.002 63.2789 50.254 63.1109 50.41C62.9429 50.566 62.7029 50.644 62.3909 50.644ZM67.5569 40.312L65.0369 46.306L64.5689 45.73H70.5809L70.1309 46.306L67.5929 40.312H67.5569Z" fill="#0F5707"/>
</svg>
