<svg width="100" height="90" viewBox="0 0 100 90" fill="none" xmlns="http://www.w3.org/2000/svg">
<path d="M0 65C0 63.3431 1.34315 62 3 62H21C22.6569 62 24 60.6569 24 59V44.9355V40.6828V36.5V31C24 29.3431 22.6569 28 21 28H3C1.34315 28 0 26.6569 0 25L0 3.8278C0 3.30498 0.0933645 2.89419 0.280093 2.33402C0.466822 1.77386 1.84862 0 3.54785 0H95.9787C98.2008 0 100 1.77801 100 4V86C100 88.222 98.2008 90 95.9787 90H3.45449C1.75525 90 0.466822 88.1328 0.280093 87.4793C0.0933645 86.8257 0 86.527 0 85.9855L0 65Z" fill="#B5F9AD"/>
<rect x="31" y="7" width="62" height="76" rx="5" stroke="white" stroke-width="2"/>
<path d="M51.61 50.5C51.214 50.5 50.908 50.398 50.692 50.194C50.488 49.978 50.386 49.672 50.386 49.276V39.034C50.386 38.638 50.488 38.338 50.692 38.134C50.908 37.918 51.214 37.81 51.61 37.81H55.93C56.818 37.81 57.574 37.942 58.198 38.206C58.822 38.47 59.296 38.848 59.62 39.34C59.956 39.832 60.124 40.42 60.124 41.104C60.124 41.872 59.902 42.52 59.458 43.048C59.014 43.576 58.408 43.93 57.64 44.11V43.84C58.528 43.972 59.218 44.308 59.71 44.848C60.202 45.388 60.448 46.09 60.448 46.954C60.448 48.082 60.064 48.958 59.296 49.582C58.54 50.194 57.484 50.5 56.128 50.5H51.61ZM52.6 48.754H55.84C56.656 48.754 57.256 48.598 57.64 48.286C58.024 47.962 58.216 47.482 58.216 46.846C58.216 46.198 58.024 45.718 57.64 45.406C57.256 45.094 56.656 44.938 55.84 44.938H52.6V48.754ZM52.6 43.192H55.534C56.326 43.192 56.914 43.042 57.298 42.742C57.694 42.43 57.892 41.974 57.892 41.374C57.892 40.774 57.694 40.324 57.298 40.024C56.914 39.712 56.326 39.556 55.534 39.556H52.6V43.192ZM62.7288 50.644C62.4408 50.644 62.2068 50.578 62.0268 50.446C61.8588 50.314 61.7568 50.14 61.7208 49.924C61.6848 49.696 61.7268 49.444 61.8468 49.168L66.5988 38.638C66.7548 38.29 66.9408 38.044 67.1568 37.9C67.3848 37.744 67.6428 37.666 67.9308 37.666C68.2068 37.666 68.4528 37.744 68.6688 37.9C68.8968 38.044 69.0888 38.29 69.2448 38.638L74.0148 49.168C74.1468 49.444 74.1948 49.696 74.1588 49.924C74.1228 50.152 74.0208 50.332 73.8528 50.464C73.6848 50.584 73.4628 50.644 73.1868 50.644C72.8508 50.644 72.5868 50.566 72.3948 50.41C72.2148 50.242 72.0528 49.99 71.9088 49.654L70.7388 46.936L71.7108 47.566H64.1148L65.0868 46.936L63.9348 49.654C63.7788 50.002 63.6168 50.254 63.4488 50.41C63.2808 50.566 63.0408 50.644 62.7288 50.644ZM67.8948 40.312L65.3748 46.306L64.9068 45.73H70.9188L70.4688 46.306L67.9308 40.312H67.8948Z" fill="#0F5707"/>
</svg>
