<svg width="124" height="90" viewBox="0 0 124 90" fill="none" xmlns="http://www.w3.org/2000/svg">
<path d="M3.98041 90H100V87C100 87 100 86.5415 100 86V76V65C100 63.3431 101.343 62 103 62H121C122.657 62 124 60.6569 124 59V44.7766V31.1196C124 29.4694 122.667 28.1291 121.017 28.1197L102.983 28.017C101.333 28.0076 100 26.6672 100 25.017V21.1476V18.5V16V14V12.5V11V10V9V7.5V6V5V4C100 3.47718 100 0 100 0C100 0 97.2465 0 95.5803 0H3.88784C1.68473 0 0 1.6058 0 3.8278L0 85.9855C0 88.2075 1.7773 90 3.98041 90Z" fill="#B5F9AD"/>
<rect x="7" y="7" width="86" height="76" rx="5" stroke="white" stroke-width="2"/>
<path d="M26.538 50.644C26.166 50.644 25.878 50.542 25.674 50.338C25.482 50.122 25.386 49.828 25.386 49.456V38.836C25.386 38.452 25.482 38.164 25.674 37.972C25.878 37.768 26.166 37.666 26.538 37.666C26.91 37.666 27.192 37.768 27.384 37.972C27.588 38.164 27.69 38.452 27.69 38.836V43.192H29.742L29.292 43.498L32.604 38.26C32.772 38.008 32.964 37.84 33.18 37.756C33.408 37.672 33.63 37.654 33.846 37.702C34.062 37.75 34.248 37.852 34.404 38.008C34.56 38.164 34.644 38.356 34.656 38.584C34.68 38.812 34.608 39.058 34.44 39.322L31.416 43.948L30.516 43.282C31.296 43.402 31.956 43.684 32.496 44.128C33.036 44.572 33.498 45.19 33.882 45.982L35.358 49.006C35.514 49.306 35.562 49.576 35.502 49.816C35.454 50.056 35.334 50.248 35.142 50.392C34.962 50.524 34.752 50.602 34.512 50.626C34.284 50.65 34.056 50.608 33.828 50.5C33.612 50.38 33.438 50.182 33.306 49.906L31.884 46.846C31.596 46.222 31.248 45.778 30.84 45.514C30.444 45.25 29.946 45.118 29.346 45.118H27.69V49.456C27.69 49.828 27.594 50.122 27.402 50.338C27.21 50.542 26.922 50.644 26.538 50.644ZM42.992 50.68C41.768 50.68 40.694 50.41 39.77 49.87C38.858 49.33 38.15 48.574 37.646 47.602C37.142 46.618 36.89 45.466 36.89 44.146C36.89 43.15 37.034 42.256 37.322 41.464C37.61 40.66 38.018 39.976 38.546 39.412C39.086 38.836 39.728 38.398 40.472 38.098C41.228 37.786 42.068 37.63 42.992 37.63C44.228 37.63 45.302 37.9 46.214 38.44C47.126 38.968 47.834 39.718 48.338 40.69C48.842 41.662 49.094 42.808 49.094 44.128C49.094 45.124 48.95 46.024 48.662 46.828C48.374 47.632 47.96 48.322 47.42 48.898C46.892 49.474 46.25 49.918 45.494 50.23C44.75 50.53 43.916 50.68 42.992 50.68ZM42.992 48.7C43.772 48.7 44.432 48.52 44.972 48.16C45.524 47.8 45.944 47.278 46.232 46.594C46.532 45.91 46.682 45.094 46.682 44.146C46.682 42.706 46.358 41.59 45.71 40.798C45.074 40.006 44.168 39.61 42.992 39.61C42.224 39.61 41.564 39.79 41.012 40.15C40.46 40.498 40.034 41.014 39.734 41.698C39.446 42.37 39.302 43.186 39.302 44.146C39.302 45.574 39.626 46.69 40.274 47.494C40.922 48.298 41.828 48.7 42.992 48.7ZM52.5888 50.644C52.2168 50.644 51.9288 50.542 51.7248 50.338C51.5328 50.122 51.4368 49.828 51.4368 49.456V38.98C51.4368 38.596 51.5388 38.308 51.7428 38.116C51.9468 37.912 52.2348 37.81 52.6068 37.81H56.9448C58.3368 37.81 59.4108 38.158 60.1668 38.854C60.9228 39.55 61.3008 40.522 61.3008 41.77C61.3008 43.018 60.9228 43.996 60.1668 44.704C59.4108 45.4 58.3368 45.748 56.9448 45.748H53.7408V49.456C53.7408 49.828 53.6448 50.122 53.4528 50.338C53.2608 50.542 52.9728 50.644 52.5888 50.644ZM53.7408 43.93H56.5848C57.4008 43.93 58.0188 43.75 58.4388 43.39C58.8588 43.018 59.0688 42.478 59.0688 41.77C59.0688 41.062 58.8588 40.528 58.4388 40.168C58.0188 39.808 57.4008 39.628 56.5848 39.628H53.7408V43.93ZM68.6912 50.68C67.4672 50.68 66.3932 50.41 65.4692 49.87C64.5572 49.33 63.8492 48.574 63.3452 47.602C62.8412 46.618 62.5892 45.466 62.5892 44.146C62.5892 43.15 62.7332 42.256 63.0212 41.464C63.3092 40.66 63.7172 39.976 64.2452 39.412C64.7852 38.836 65.4272 38.398 66.1712 38.098C66.9272 37.786 67.7672 37.63 68.6912 37.63C69.9272 37.63 71.0012 37.9 71.9132 38.44C72.8252 38.968 73.5332 39.718 74.0372 40.69C74.5412 41.662 74.7932 42.808 74.7932 44.128C74.7932 45.124 74.6492 46.024 74.3612 46.828C74.0732 47.632 73.6592 48.322 73.1192 48.898C72.5912 49.474 71.9492 49.918 71.1932 50.23C70.4492 50.53 69.6152 50.68 68.6912 50.68ZM68.6912 48.7C69.4712 48.7 70.1312 48.52 70.6712 48.16C71.2232 47.8 71.6432 47.278 71.9312 46.594C72.2312 45.91 72.3812 45.094 72.3812 44.146C72.3812 42.706 72.0572 41.59 71.4092 40.798C70.7732 40.006 69.8672 39.61 68.6912 39.61C67.9232 39.61 67.2632 39.79 66.7112 40.15C66.1592 40.498 65.7332 41.014 65.4332 41.698C65.1452 42.37 65.0012 43.186 65.0012 44.146C65.0012 45.574 65.3252 46.69 65.9732 47.494C66.6212 48.298 67.5272 48.7 68.6912 48.7Z" fill="#0F5707"/>
</svg>
