<svg width="100" height="90" viewBox="0 0 100 90" fill="none" xmlns="http://www.w3.org/2000/svg">
<path d="M0 65C0 63.3431 1.34315 62 3 62H21C22.6569 62 24 60.6569 24 59V44.9355V40.6828V36.5V31C24 29.3431 22.6569 28 21 28H3C1.34315 28 0 26.6569 0 25L0 3.8278C0 3.30498 0.0933645 2.89419 0.280093 2.33402C0.466822 1.77386 1.84862 0 3.54785 0H95.9787C98.2008 0 100 1.77801 100 4V86C100 88.222 98.2008 90 95.9787 90H3.45449C1.75525 90 0.466822 88.1328 0.280093 87.4793C0.0933645 86.8257 0 86.527 0 85.9855L0 65Z" fill="#B5F9AD"/>
<rect x="31" y="7" width="62" height="76" rx="5" stroke="white" stroke-width="2"/>
<path d="M51.61 50.5C51.214 50.5 50.908 50.398 50.692 50.194C50.488 49.978 50.386 49.672 50.386 49.276V39.034C50.386 38.638 50.488 38.338 50.692 38.134C50.908 37.918 51.214 37.81 51.61 37.81H58.414C58.714 37.81 58.942 37.888 59.098 38.044C59.266 38.2 59.35 38.422 59.35 38.71C59.35 39.01 59.266 39.244 59.098 39.412C58.942 39.568 58.714 39.646 58.414 39.646H52.6V43.102H56.128C57.484 43.102 58.54 43.414 59.296 44.038C60.064 44.662 60.448 45.58 60.448 46.792C60.448 47.992 60.064 48.91 59.296 49.546C58.54 50.182 57.484 50.5 56.128 50.5H51.61ZM52.6 48.664H55.84C56.656 48.664 57.256 48.514 57.64 48.214C58.024 47.902 58.216 47.428 58.216 46.792C58.216 46.156 58.024 45.688 57.64 45.388C57.256 45.088 56.656 44.938 55.84 44.938H52.6V48.664ZM62.6233 50.644C62.3353 50.644 62.1013 50.578 61.9213 50.446C61.7533 50.314 61.6513 50.14 61.6153 49.924C61.5793 49.696 61.6213 49.444 61.7413 49.168L66.4933 38.638C66.6493 38.29 66.8353 38.044 67.0513 37.9C67.2793 37.744 67.5373 37.666 67.8253 37.666C68.1013 37.666 68.3473 37.744 68.5633 37.9C68.7913 38.044 68.9833 38.29 69.1393 38.638L73.9093 49.168C74.0413 49.444 74.0893 49.696 74.0533 49.924C74.0173 50.152 73.9153 50.332 73.7473 50.464C73.5793 50.584 73.3573 50.644 73.0813 50.644C72.7453 50.644 72.4813 50.566 72.2893 50.41C72.1093 50.242 71.9473 49.99 71.8033 49.654L70.6333 46.936L71.6053 47.566H64.0093L64.9813 46.936L63.8293 49.654C63.6733 50.002 63.5113 50.254 63.3433 50.41C63.1753 50.566 62.9353 50.644 62.6233 50.644ZM67.7893 40.312L65.2693 46.306L64.8013 45.73H70.8133L70.3633 46.306L67.8253 40.312H67.7893Z" fill="#0F5707"/>
</svg>
