<svg width="125" height="90" viewBox="0 0 125 90" fill="none" xmlns="http://www.w3.org/2000/svg">
<path d="M4.03119 90H95.6361C97.3023 90 98.9269 89.222 99.5008 87.75C99.6859 87.2842 100.051 86.5404 100.051 86V76V74V71V69V68V66C100.051 65.6544 100.051 65.3194 100.051 65C100.051 63.3431 101.395 62 103.052 62C103.62 62 104.043 62 104.051 62C114.937 62 124.051 54.5217 124.051 45C124.051 35.4969 114.937 28 104.051 28C103.697 28 103.363 28 103.05 28C101.393 28 100.051 26.6569 100.051 25C100.051 24.6801 100.051 24.3449 100.051 24V19V13.5V8.5V4.5C100.051 4.05 99.6859 3.16584 99.5008 2.7C98.9269 1.22795 97.3023 0 95.6361 0H4.03119C1.82808 0 0.0507813 1.78883 0.0507813 4.00622L0.0507813 85.9938C0.0507813 88.2112 1.82808 90 4.03119 90Z" fill="#B5F9AD"/>
<rect x="7.05078" y="7" width="86" height="76" rx="5" stroke="white" stroke-width="2"/>
<path d="M43.6488 50.644C43.2768 50.644 42.9888 50.542 42.7848 50.338C42.5928 50.122 42.4968 49.828 42.4968 49.456V39.736H38.9868C38.6748 39.736 38.4288 39.652 38.2488 39.484C38.0808 39.304 37.9968 39.064 37.9968 38.764C37.9968 38.452 38.0808 38.218 38.2488 38.062C38.4288 37.894 38.6748 37.81 38.9868 37.81H48.3108C48.6228 37.81 48.8628 37.894 49.0308 38.062C49.2108 38.218 49.3008 38.452 49.3008 38.764C49.3008 39.064 49.2108 39.304 49.0308 39.484C48.8628 39.652 48.6228 39.736 48.3108 39.736H44.8008V49.456C44.8008 49.828 44.7048 50.122 44.5128 50.338C44.3208 50.542 44.0328 50.644 43.6488 50.644ZM49.2132 50.644C48.9252 50.644 48.6912 50.578 48.5112 50.446C48.3432 50.314 48.2412 50.14 48.2052 49.924C48.1692 49.696 48.2112 49.444 48.3312 49.168L53.0832 38.638C53.2392 38.29 53.4252 38.044 53.6412 37.9C53.8692 37.744 54.1272 37.666 54.4152 37.666C54.6912 37.666 54.9372 37.744 55.1532 37.9C55.3812 38.044 55.5732 38.29 55.7292 38.638L60.4992 49.168C60.6312 49.444 60.6792 49.696 60.6432 49.924C60.6072 50.152 60.5052 50.332 60.3372 50.464C60.1692 50.584 59.9472 50.644 59.6712 50.644C59.3352 50.644 59.0712 50.566 58.8792 50.41C58.6992 50.242 58.5372 49.99 58.3932 49.654L57.2232 46.936L58.1952 47.566H50.5992L51.5712 46.936L50.4192 49.654C50.2632 50.002 50.1012 50.254 49.9332 50.41C49.7652 50.566 49.5252 50.644 49.2132 50.644ZM54.3792 40.312L51.8592 46.306L51.3912 45.73H57.4032L56.9532 46.306L54.4152 40.312H54.3792Z" fill="#0F5707"/>
</svg>
