<svg width="100" height="90" viewBox="0 0 100 90" fill="none" xmlns="http://www.w3.org/2000/svg">
<path d="M100 29.4898C100 30.8762 98.8762 32 97.4898 32H96.9449C95.8447 32 94.9572 31.1001 94.9724 30C94.9876 28.8999 94.1 28 92.9998 28L78.9971 28C77.3403 28 75.9971 29.3431 75.9971 31V45L75.9971 59C75.9971 60.6569 77.3403 62 78.9971 62L93 62C94.1046 62 95 61.1046 95 60C95 58.8954 95.8954 58 97 58H97.5C98.8807 58 100 59.1193 100 60.5V86C100 86.5217 99.8965 86.9255 99.7098 87.4845C99.523 88.0435 98.2365 90 96.5373 90L4.10647 90C1.88439 90 -0.00156403 88.2112 -0.00156403 85.9938L-0.00156403 4.00621C-0.00156403 1.78882 1.79103 0 4.01311 0L96.444 0C98.1432 0 99.4316 2.42236 99.525 2.6087C99.6183 2.79503 99.9066 3.06832 100 4V29.4898Z" fill="#B5F9AD"/>
<rect x="7" y="7" width="62" height="76" rx="5" stroke="white" stroke-width="2"/>
<path d="M31.574 50.68C30.35 50.68 29.276 50.41 28.352 49.87C27.44 49.33 26.732 48.574 26.228 47.602C25.724 46.618 25.472 45.466 25.472 44.146C25.472 43.15 25.616 42.256 25.904 41.464C26.192 40.66 26.6 39.976 27.128 39.412C27.668 38.836 28.31 38.398 29.054 38.098C29.81 37.786 30.65 37.63 31.574 37.63C32.81 37.63 33.884 37.9 34.796 38.44C35.708 38.968 36.416 39.718 36.92 40.69C37.424 41.662 37.676 42.808 37.676 44.128C37.676 45.124 37.532 46.024 37.244 46.828C36.956 47.632 36.542 48.322 36.002 48.898C35.474 49.474 34.832 49.918 34.076 50.23C33.332 50.53 32.498 50.68 31.574 50.68ZM31.574 48.7C32.354 48.7 33.014 48.52 33.554 48.16C34.106 47.8 34.526 47.278 34.814 46.594C35.114 45.91 35.264 45.094 35.264 44.146C35.264 42.706 34.94 41.59 34.292 40.798C33.656 40.006 32.75 39.61 31.574 39.61C30.806 39.61 30.146 39.79 29.594 40.15C29.042 40.498 28.616 41.014 28.316 41.698C28.028 42.37 27.884 43.186 27.884 44.146C27.884 45.574 28.208 46.69 28.856 47.494C29.504 48.298 30.41 48.7 31.574 48.7ZM41.2428 50.5C40.8468 50.5 40.5408 50.398 40.3248 50.194C40.1208 49.978 40.0188 49.672 40.0188 49.276V39.034C40.0188 38.638 40.1208 38.338 40.3248 38.134C40.5408 37.918 40.8468 37.81 41.2428 37.81H48.0468C48.3468 37.81 48.5748 37.888 48.7308 38.044C48.8988 38.2 48.9828 38.422 48.9828 38.71C48.9828 39.01 48.8988 39.244 48.7308 39.412C48.5748 39.568 48.3468 39.646 48.0468 39.646H42.2328V43.102H45.7608C47.1168 43.102 48.1728 43.414 48.9288 44.038C49.6968 44.662 50.0808 45.58 50.0808 46.792C50.0808 47.992 49.6968 48.91 48.9288 49.546C48.1728 50.182 47.1168 50.5 45.7608 50.5H41.2428ZM42.2328 48.664H45.4728C46.2888 48.664 46.8888 48.514 47.2728 48.214C47.6568 47.902 47.8488 47.428 47.8488 46.792C47.8488 46.156 47.6568 45.688 47.2728 45.388C46.8888 45.088 46.2888 44.938 45.4728 44.938H42.2328V48.664Z" fill="#0F5707"/>
</svg>
