<svg width="100" height="90" viewBox="0 0 100 90" fill="none" xmlns="http://www.w3.org/2000/svg">
<path d="M0 67.5038C0 66.6425 0.370194 65.8228 1.01634 65.2533L21.4414 47.2506C22.7965 46.0562 22.7965 43.9438 21.4414 42.7494L1.01634 24.7467C0.370194 24.1772 0 23.3575 0 22.4962L0 4.00621C0 3.48447 0.0935103 3.1677 0.280531 2.6087C0.467552 2.04969 2.03853 0 3.74041 0H95.9791C98.2046 0 100 1.78882 100 4.00621V85.9938C100 88.2112 98.2046 90 95.9791 90H3.45988C1.75799 90 0.467552 88.1366 0.280531 87.4845C0.0935103 86.8323 0 86.5342 0 85.9938L0 67.5038Z" fill="#B5F9AD"/>
<rect x="31" y="7" width="62" height="76" rx="5" stroke="white" stroke-width="2"/>
<path d="M51.11 50.5C50.714 50.5 50.408 50.398 50.192 50.194C49.988 49.978 49.886 49.672 49.886 49.276V39.034C49.886 38.638 49.988 38.338 50.192 38.134C50.408 37.918 50.714 37.81 51.11 37.81H55.43C56.318 37.81 57.074 37.942 57.698 38.206C58.322 38.47 58.796 38.848 59.12 39.34C59.456 39.832 59.624 40.42 59.624 41.104C59.624 41.872 59.402 42.52 58.958 43.048C58.514 43.576 57.908 43.93 57.14 44.11V43.84C58.028 43.972 58.718 44.308 59.21 44.848C59.702 45.388 59.948 46.09 59.948 46.954C59.948 48.082 59.564 48.958 58.796 49.582C58.04 50.194 56.984 50.5 55.628 50.5H51.11ZM52.1 48.754H55.34C56.156 48.754 56.756 48.598 57.14 48.286C57.524 47.962 57.716 47.482 57.716 46.846C57.716 46.198 57.524 45.718 57.14 45.406C56.756 45.094 56.156 44.938 55.34 44.938H52.1V48.754ZM52.1 43.192H55.034C55.826 43.192 56.414 43.042 56.798 42.742C57.194 42.43 57.392 41.974 57.392 41.374C57.392 40.774 57.194 40.324 56.798 40.024C56.414 39.712 55.826 39.556 55.034 39.556H52.1V43.192ZM67.9666 50.68C66.7426 50.68 65.6686 50.41 64.7446 49.87C63.8326 49.33 63.1246 48.574 62.6206 47.602C62.1166 46.618 61.8646 45.466 61.8646 44.146C61.8646 43.15 62.0086 42.256 62.2966 41.464C62.5846 40.66 62.9926 39.976 63.5206 39.412C64.0606 38.836 64.7026 38.398 65.4466 38.098C66.2026 37.786 67.0426 37.63 67.9666 37.63C69.2026 37.63 70.2766 37.9 71.1886 38.44C72.1006 38.968 72.8086 39.718 73.3126 40.69C73.8166 41.662 74.0686 42.808 74.0686 44.128C74.0686 45.124 73.9246 46.024 73.6366 46.828C73.3486 47.632 72.9346 48.322 72.3946 48.898C71.8666 49.474 71.2246 49.918 70.4686 50.23C69.7246 50.53 68.8906 50.68 67.9666 50.68ZM67.9666 48.7C68.7466 48.7 69.4066 48.52 69.9466 48.16C70.4986 47.8 70.9186 47.278 71.2066 46.594C71.5066 45.91 71.6566 45.094 71.6566 44.146C71.6566 42.706 71.3326 41.59 70.6846 40.798C70.0486 40.006 69.1426 39.61 67.9666 39.61C67.1986 39.61 66.5386 39.79 65.9866 40.15C65.4346 40.498 65.0086 41.014 64.7086 41.698C64.4206 42.37 64.2766 43.186 64.2766 44.146C64.2766 45.574 64.6006 46.69 65.2486 47.494C65.8966 48.298 66.8026 48.7 67.9666 48.7Z" fill="#0F5707"/>
</svg>
