<svg width="101" height="90" viewBox="0 0 101 90" fill="none" xmlns="http://www.w3.org/2000/svg">
<path d="M100.078 29.4898C100.078 30.8762 98.9543 32 97.5679 32H97.023C95.9229 32 95.0353 31.1001 95.0505 30C95.0657 28.8999 94.1781 28 93.0779 28L79.0753 28C77.4184 28 76.0753 29.3431 76.0753 31V45L76.0753 59C76.0753 60.6569 77.4184 62 79.0753 62L93.0781 62C94.1827 62 95.0781 61.1046 95.0781 60C95.0781 58.8954 95.9736 58 97.0781 58H97.5781C98.9588 58 100.078 59.1193 100.078 60.5V86C100.078 86.5217 99.9746 86.9255 99.7879 87.4845C99.6012 88.0435 98.3147 90 96.6154 90L4.18459 90C1.96252 90 0.076561 88.2112 0.076561 85.9938L0.076561 4.00621C0.076561 1.78882 1.86916 0 4.09123 0L96.5221 0C98.2213 0 99.5097 2.42236 99.6031 2.6087C99.6965 2.79503 99.9848 3.06832 100.078 4V29.4898Z" fill="#B5F9AD"/>
<rect x="7.07812" y="7" width="62" height="76" rx="5" stroke="white" stroke-width="2"/>
<path d="M26.5441 50.644C26.2081 50.644 25.9501 50.548 25.7701 50.356C25.5901 50.164 25.5001 49.9 25.5001 49.564V38.746C25.5001 38.398 25.5961 38.134 25.7881 37.954C25.9801 37.762 26.2441 37.666 26.5801 37.666C26.8801 37.666 27.1141 37.726 27.2821 37.846C27.4621 37.954 27.6241 38.146 27.7681 38.422L32.2141 46.648H31.6381L36.0841 38.422C36.2281 38.146 36.3841 37.954 36.5521 37.846C36.7201 37.726 36.9541 37.666 37.2541 37.666C37.5901 37.666 37.8481 37.762 38.0281 37.954C38.2081 38.134 38.2981 38.398 38.2981 38.746V49.564C38.2981 49.9 38.2081 50.164 38.0281 50.356C37.8601 50.548 37.6021 50.644 37.2541 50.644C36.9181 50.644 36.6601 50.548 36.4801 50.356C36.3001 50.164 36.2101 49.9 36.2101 49.564V41.23H36.6061L32.8261 48.124C32.7061 48.328 32.5801 48.478 32.4481 48.574C32.3161 48.67 32.1361 48.718 31.9081 48.718C31.6801 48.718 31.4941 48.67 31.3501 48.574C31.2061 48.466 31.0801 48.316 30.9721 48.124L27.1561 41.212H27.5881V49.564C27.5881 49.9 27.4981 50.164 27.3181 50.356C27.1501 50.548 26.8921 50.644 26.5441 50.644ZM44.5471 50.644C44.2831 50.644 44.0551 50.578 43.8631 50.446C43.6711 50.302 43.5511 50.116 43.5031 49.888C43.4671 49.648 43.5271 49.378 43.6831 49.078L45.1231 46.27V46.99L40.2991 39.196C40.1431 38.932 40.0771 38.686 40.1011 38.458C40.1371 38.218 40.2511 38.026 40.4431 37.882C40.6351 37.738 40.8751 37.666 41.1631 37.666C41.4631 37.666 41.6911 37.738 41.8471 37.882C42.0151 38.026 42.1771 38.23 42.3331 38.494L46.2391 44.92H45.8251L49.0831 38.512C49.2031 38.284 49.3411 38.086 49.4971 37.918C49.6651 37.75 49.9111 37.666 50.2351 37.666C50.5111 37.666 50.7391 37.732 50.9191 37.864C51.1111 37.996 51.2311 38.182 51.2791 38.422C51.3271 38.65 51.2671 38.92 51.0991 39.232L45.7171 49.798C45.6091 50.014 45.4651 50.212 45.2851 50.392C45.1171 50.56 44.8711 50.644 44.5471 50.644Z" fill="#0F5707"/>
</svg>
