<svg width="100" height="90" viewBox="0 0 100 90" fill="none" xmlns="http://www.w3.org/2000/svg">
<path d="M100.004 29C100.004 30.6569 98.6608 32 97.0039 32H95.94C94.8704 32 94.0032 31.1329 94.0032 30.0632C94.0032 28.9454 93.0626 28.0707 91.9569 28.2341C89.1057 28.6553 83.9703 29.7754 81.1405 32.5796C77.4104 36.2761 76.0004 38.8642 76.0004 45C76.0004 51.2423 77.3597 53.6231 81.1405 57.3653C83.9703 60.1661 89.1006 61.3139 91.9525 61.7525C93.0585 61.9226 94.0039 61.0493 94.0039 59.9303C94.0039 58.8642 94.8681 58 95.9342 58H97.0039C98.6608 58 100.004 59.3431 100.004 61V86C100.004 86.5217 99.8997 86.9255 99.713 87.4845C99.5263 88.0435 98.2398 90 96.5405 90L4.1097 90C1.88763 90 0.00166321 88.2112 0.00166321 85.9938L0.00166321 4.00621C0.00166321 1.78882 1.79426 0 4.01633 0L96.4472 0C98.1464 0 99.5 2.5 99.5 2.5C99.5 2.5 99.9105 3.06832 100.004 4V29Z" fill="#B5F9AD"/>
<rect x="7" y="7" width="62" height="76" rx="5" stroke="white" stroke-width="2"/>
<path d="M27.538 50.644C27.166 50.644 26.878 50.542 26.674 50.338C26.482 50.122 26.386 49.828 26.386 49.456V38.98C26.386 38.596 26.488 38.308 26.692 38.116C26.896 37.912 27.184 37.81 27.556 37.81H31.894C33.286 37.81 34.36 38.158 35.116 38.854C35.872 39.55 36.25 40.522 36.25 41.77C36.25 43.018 35.872 43.996 35.116 44.704C34.36 45.4 33.286 45.748 31.894 45.748H28.69V49.456C28.69 49.828 28.594 50.122 28.402 50.338C28.21 50.542 27.922 50.644 27.538 50.644ZM28.69 43.93H31.534C32.35 43.93 32.968 43.75 33.388 43.39C33.808 43.018 34.018 42.478 34.018 41.77C34.018 41.062 33.808 40.528 33.388 40.168C32.968 39.808 32.35 39.628 31.534 39.628H28.69V43.93ZM43.6404 50.68C42.4164 50.68 41.3424 50.41 40.4184 49.87C39.5064 49.33 38.7984 48.574 38.2944 47.602C37.7904 46.618 37.5384 45.466 37.5384 44.146C37.5384 43.15 37.6824 42.256 37.9704 41.464C38.2584 40.66 38.6664 39.976 39.1944 39.412C39.7344 38.836 40.3764 38.398 41.1204 38.098C41.8764 37.786 42.7164 37.63 43.6404 37.63C44.8764 37.63 45.9504 37.9 46.8624 38.44C47.7744 38.968 48.4824 39.718 48.9864 40.69C49.4904 41.662 49.7424 42.808 49.7424 44.128C49.7424 45.124 49.5984 46.024 49.3104 46.828C49.0224 47.632 48.6084 48.322 48.0684 48.898C47.5404 49.474 46.8984 49.918 46.1424 50.23C45.3984 50.53 44.5644 50.68 43.6404 50.68ZM43.6404 48.7C44.4204 48.7 45.0804 48.52 45.6204 48.16C46.1724 47.8 46.5924 47.278 46.8804 46.594C47.1804 45.91 47.3304 45.094 47.3304 44.146C47.3304 42.706 47.0064 41.59 46.3584 40.798C45.7224 40.006 44.8164 39.61 43.6404 39.61C42.8724 39.61 42.2124 39.79 41.6604 40.15C41.1084 40.498 40.6824 41.014 40.3824 41.698C40.0944 42.37 39.9504 43.186 39.9504 44.146C39.9504 45.574 40.2744 46.69 40.9224 47.494C41.5704 48.298 42.4764 48.7 43.6404 48.7Z" fill="#0F5707"/>
</svg>
