<svg width="125" height="90" viewBox="0 0 125 90" fill="none" xmlns="http://www.w3.org/2000/svg">
<path d="M4.02644 90H96.1514C97.827 90 99.2793 88.9565 99.8565 87.4845C100.043 87.0186 100.023 86.5404 100.023 86V76V67.3613C100.023 66.4962 100.397 65.6732 101.048 65.1036L121.443 47.2577C122.809 46.0625 122.809 43.9375 121.443 42.7423L101.048 24.8964C100.397 24.3268 100.023 23.5038 100.023 22.6387V21V18V14V9V7V6.5V5.5V5V4C100.023 3.47826 100.043 2.98137 99.8565 2.51553C99.2793 1.04349 97.827 0 96.1514 0H4.02644C1.81083 0 0.0234375 1.78882 0.0234375 4.00621L0.0234375 85.9938C0.0234375 88.2112 1.81083 90 4.02644 90Z" fill="#B5F9AD"/>
<rect x="7.02344" y="7" width="86" height="76" rx="5" stroke="white" stroke-width="2"/>
<path d="M27.3014 53.614C26.9654 53.614 26.7074 53.524 26.5274 53.344C26.3594 53.164 26.2754 52.906 26.2754 52.57V49.726C26.2754 49.018 26.6354 48.664 27.3554 48.664H28.5794L27.2114 49.024C27.8954 48.34 28.3994 47.35 28.7234 46.054C29.0594 44.758 29.2274 43.114 29.2274 41.122V39.034C29.2274 38.638 29.3294 38.338 29.5334 38.134C29.7494 37.918 30.0554 37.81 30.4514 37.81H36.9854C37.3814 37.81 37.6814 37.918 37.8854 38.134C38.1014 38.338 38.2094 38.638 38.2094 39.034V49.528L37.3454 48.664H38.9294C39.2774 48.664 39.5414 48.754 39.7214 48.934C39.9134 49.114 40.0094 49.378 40.0094 49.726V52.57C40.0094 53.266 39.6734 53.614 39.0014 53.614C38.6654 53.614 38.4074 53.524 38.2274 53.344C38.0474 53.164 37.9574 52.906 37.9574 52.57V50.5H28.3274V52.57C28.3274 53.266 27.9854 53.614 27.3014 53.614ZM29.8754 48.664H35.8874V39.646H31.3694V41.338C31.3694 43.066 31.2434 44.524 30.9914 45.712C30.7514 46.9 30.3794 47.884 29.8754 48.664ZM43.0123 50.5C42.6163 50.5 42.3103 50.398 42.0943 50.194C41.8903 49.978 41.7883 49.672 41.7883 49.276V39.034C41.7883 38.638 41.8903 38.338 42.0943 38.134C42.3103 37.918 42.6163 37.81 43.0123 37.81H49.4383C49.7383 37.81 49.9663 37.888 50.1223 38.044C50.2903 38.2 50.3743 38.422 50.3743 38.71C50.3743 39.01 50.2903 39.244 50.1223 39.412C49.9663 39.568 49.7383 39.646 49.4383 39.646H44.0023V43.138H49.0423C49.3543 43.138 49.5883 43.216 49.7443 43.372C49.9003 43.528 49.9783 43.756 49.9783 44.056C49.9783 44.356 49.9003 44.584 49.7443 44.74C49.5883 44.896 49.3543 44.974 49.0423 44.974H44.0023V48.664H49.4383C49.7383 48.664 49.9663 48.742 50.1223 48.898C50.2903 49.054 50.3743 49.282 50.3743 49.582C50.3743 49.882 50.2903 50.11 50.1223 50.266C49.9663 50.422 49.7383 50.5 49.4383 50.5H43.0123ZM53.6806 50.644C53.3086 50.644 53.0206 50.542 52.8166 50.338C52.6246 50.122 52.5286 49.828 52.5286 49.456V38.98C52.5286 38.596 52.6306 38.308 52.8346 38.116C53.0386 37.912 53.3266 37.81 53.6986 37.81H58.0366C59.4286 37.81 60.5026 38.158 61.2586 38.854C62.0146 39.55 62.3926 40.522 62.3926 41.77C62.3926 43.018 62.0146 43.996 61.2586 44.704C60.5026 45.4 59.4286 45.748 58.0366 45.748H54.8326V49.456C54.8326 49.828 54.7366 50.122 54.5446 50.338C54.3526 50.542 54.0646 50.644 53.6806 50.644ZM54.8326 43.93H57.6766C58.4926 43.93 59.1106 43.75 59.5306 43.39C59.9506 43.018 60.1606 42.478 60.1606 41.77C60.1606 41.062 59.9506 40.528 59.5306 40.168C59.1106 39.808 58.4926 39.628 57.6766 39.628H54.8326V43.93ZM65.4948 50.5C65.0988 50.5 64.7928 50.398 64.5768 50.194C64.3728 49.978 64.2708 49.672 64.2708 49.276V39.034C64.2708 38.638 64.3728 38.338 64.5768 38.134C64.7928 37.918 65.0988 37.81 65.4948 37.81H71.9208C72.2208 37.81 72.4488 37.888 72.6048 38.044C72.7728 38.2 72.8568 38.422 72.8568 38.71C72.8568 39.01 72.7728 39.244 72.6048 39.412C72.4488 39.568 72.2208 39.646 71.9208 39.646H66.4848V43.138H71.5248C71.8368 43.138 72.0708 43.216 72.2268 43.372C72.3828 43.528 72.4608 43.756 72.4608 44.056C72.4608 44.356 72.3828 44.584 72.2268 44.74C72.0708 44.896 71.8368 44.974 71.5248 44.974H66.4848V48.664H71.9208C72.2208 48.664 72.4488 48.742 72.6048 48.898C72.7728 49.054 72.8568 49.282 72.8568 49.582C72.8568 49.882 72.7728 50.11 72.6048 50.266C72.4488 50.422 72.2208 50.5 71.9208 50.5H65.4948Z" fill="#0F5707"/>
</svg>
