<svg width="124" height="90" viewBox="0 0 124 90" fill="none" xmlns="http://www.w3.org/2000/svg">
<path d="M119.997 0L27.8721 0C26.1964 0 24.7442 1.04348 24.167 2.51553C23.9808 2.98137 24 3.45963 24 4V29C24 30.6569 22.6569 32 21 32H19.932C18.865 32 18 31.135 18 30.068C18 28.9493 17.0541 28.0751 15.9477 28.2399C13.1794 28.6522 8.28056 29.7093 5.53673 32.236C1.49192 35.9607 0 38.8381 0 45.1863C0 51.3221 1.59048 54.1292 5.53673 57.764C8.28033 60.291 13.1794 61.348 15.9477 61.7602C17.0542 61.9249 18 61.0507 18 59.9321C18 58.865 18.865 58 19.9321 58H21C22.6569 58 24 59.3431 24 61V72V86C24 86.5217 23.9808 87.0186 24.167 87.4845C24.7442 88.9565 26.1964 90 27.8721 90L119.997 90C122.213 90 124 88.2112 124 85.9938L124 4.00621C124 1.78882 122.213 0 119.997 0Z" fill="#B5F9AD"/>
<rect x="31" y="7" width="86" height="76" rx="5" stroke="white" stroke-width="2"/>
<path d="M39.466 50.644C39.13 50.644 38.872 50.548 38.692 50.356C38.512 50.164 38.422 49.9 38.422 49.564V38.746C38.422 38.398 38.518 38.134 38.71 37.954C38.902 37.762 39.166 37.666 39.502 37.666C39.802 37.666 40.036 37.726 40.204 37.846C40.384 37.954 40.546 38.146 40.69 38.422L45.136 46.648H44.56L49.006 38.422C49.15 38.146 49.306 37.954 49.474 37.846C49.642 37.726 49.876 37.666 50.176 37.666C50.512 37.666 50.77 37.762 50.95 37.954C51.13 38.134 51.22 38.398 51.22 38.746V49.564C51.22 49.9 51.13 50.164 50.95 50.356C50.782 50.548 50.524 50.644 50.176 50.644C49.84 50.644 49.582 50.548 49.402 50.356C49.222 50.164 49.132 49.9 49.132 49.564V41.23H49.528L45.748 48.124C45.628 48.328 45.502 48.478 45.37 48.574C45.238 48.67 45.058 48.718 44.83 48.718C44.602 48.718 44.416 48.67 44.272 48.574C44.128 48.466 44.002 48.316 43.894 48.124L40.078 41.212H40.51V49.564C40.51 49.9 40.42 50.164 40.24 50.356C40.072 50.548 39.814 50.644 39.466 50.644ZM54.139 50.644C53.851 50.644 53.617 50.578 53.437 50.446C53.269 50.314 53.167 50.14 53.131 49.924C53.095 49.696 53.137 49.444 53.257 49.168L58.009 38.638C58.165 38.29 58.351 38.044 58.567 37.9C58.795 37.744 59.053 37.666 59.341 37.666C59.617 37.666 59.863 37.744 60.079 37.9C60.307 38.044 60.499 38.29 60.655 38.638L65.425 49.168C65.557 49.444 65.605 49.696 65.569 49.924C65.533 50.152 65.431 50.332 65.263 50.464C65.095 50.584 64.873 50.644 64.597 50.644C64.261 50.644 63.997 50.566 63.805 50.41C63.625 50.242 63.463 49.99 63.319 49.654L62.149 46.936L63.121 47.566H55.525L56.497 46.936L55.345 49.654C55.189 50.002 55.027 50.254 54.859 50.41C54.691 50.566 54.451 50.644 54.139 50.644ZM59.305 40.312L56.785 46.306L56.317 45.73H62.329L61.879 46.306L59.341 40.312H59.305ZM68.6315 50.5C68.2355 50.5 67.9295 50.398 67.7135 50.194C67.5095 49.978 67.4075 49.672 67.4075 49.276V38.854C67.4075 38.47 67.5035 38.176 67.6955 37.972C67.8995 37.768 68.1815 37.666 68.5415 37.666C68.9135 37.666 69.1955 37.768 69.3875 37.972C69.5795 38.176 69.6755 38.47 69.6755 38.854V48.574H74.5175V38.854C74.5175 38.47 74.6135 38.176 74.8055 37.972C75.0095 37.768 75.2915 37.666 75.6515 37.666C76.0235 37.666 76.3055 37.768 76.4975 37.972C76.6895 38.176 76.7855 38.47 76.7855 38.854V48.574H81.6275V38.854C81.6275 38.47 81.7235 38.176 81.9155 37.972C82.1195 37.768 82.4015 37.666 82.7615 37.666C83.1335 37.666 83.4155 37.768 83.6075 37.972C83.7995 38.176 83.8955 38.47 83.8955 38.854V49.276C83.8955 49.672 83.7875 49.978 83.5715 50.194C83.3675 50.398 83.0675 50.5 82.6715 50.5H68.6315ZM87.8251 50.644C87.4531 50.644 87.1651 50.542 86.9611 50.338C86.7691 50.122 86.6731 49.828 86.6731 49.456V38.836C86.6731 38.452 86.7691 38.164 86.9611 37.972C87.1651 37.768 87.4531 37.666 87.8251 37.666C88.1971 37.666 88.4791 37.768 88.6711 37.972C88.8751 38.164 88.9771 38.452 88.9771 38.836V43.192H91.0291L90.5791 43.498L93.8911 38.26C94.0591 38.008 94.2511 37.84 94.4671 37.756C94.6951 37.672 94.9171 37.654 95.1331 37.702C95.3491 37.75 95.5351 37.852 95.6911 38.008C95.8471 38.164 95.9311 38.356 95.9431 38.584C95.9671 38.812 95.8951 39.058 95.7271 39.322L92.7031 43.948L91.8031 43.282C92.5831 43.402 93.2431 43.684 93.7831 44.128C94.3231 44.572 94.7851 45.19 95.1691 45.982L96.6451 49.006C96.8011 49.306 96.8491 49.576 96.7891 49.816C96.7411 50.056 96.6211 50.248 96.4291 50.392C96.2491 50.524 96.0391 50.602 95.7991 50.626C95.5711 50.65 95.3431 50.608 95.1151 50.5C94.8991 50.38 94.7251 50.182 94.5931 49.906L93.1711 46.846C92.8831 46.222 92.5351 45.778 92.1271 45.514C91.7311 45.25 91.2331 45.118 90.6331 45.118H88.9771V49.456C88.9771 49.828 88.8811 50.122 88.6891 50.338C88.4971 50.542 88.2091 50.644 87.8251 50.644ZM98.6819 50.644C98.3939 50.644 98.1599 50.578 97.9799 50.446C97.8119 50.314 97.7099 50.14 97.6739 49.924C97.6379 49.696 97.6799 49.444 97.7999 49.168L102.552 38.638C102.708 38.29 102.894 38.044 103.11 37.9C103.338 37.744 103.596 37.666 103.884 37.666C104.16 37.666 104.406 37.744 104.622 37.9C104.85 38.044 105.042 38.29 105.198 38.638L109.968 49.168C110.1 49.444 110.148 49.696 110.112 49.924C110.076 50.152 109.974 50.332 109.806 50.464C109.638 50.584 109.416 50.644 109.14 50.644C108.804 50.644 108.54 50.566 108.348 50.41C108.168 50.242 108.006 49.99 107.862 49.654L106.692 46.936L107.664 47.566H100.068L101.04 46.936L99.8879 49.654C99.7319 50.002 99.5699 50.254 99.4019 50.41C99.2339 50.566 98.9939 50.644 98.6819 50.644ZM103.848 40.312L101.328 46.306L100.86 45.73H106.872L106.422 46.306L103.884 40.312H103.848Z" fill="#0F5707"/>
</svg>
