<svg width="185" height="19" viewBox="0 0 185 19" fill="none" xmlns="http://www.w3.org/2000/svg">
<path fill-rule="evenodd" clip-rule="evenodd" d="M20.2753 4.20068H12.862L11.8193 5.27337V13.7508L12.862 14.7972H20.2753L21.3213 13.7508V5.27528L20.2753 4.20068ZM19.2165 12.6776H13.9375V6.32171H19.2165V12.6776ZM8.65856 14.7978H1.24522L0.201172 13.7532V5.2758L1.24522 4.2012H8.65856L9.70213 5.2758V7.38012H7.59924V6.32032H2.31934V12.6782H7.59924V11.6336H9.70213V13.7532L8.65856 14.7978ZM28.7203 4.20068H35.0581L36.1174 5.27528V13.7527L35.0581 14.7992H28.7203L27.6614 13.7527V10.5738H25.5566V14.7987H23.4385V4.20068H25.5566V8.45229H27.6614V5.27337L28.7203 4.20068ZM29.7796 12.6776H34.0155V6.32171H29.7796V12.6776ZM46.691 14.7978H39.2777L38.2341 13.7532V11.6336H40.3518V12.6782H45.6322V10.5743H42.4552V8.45472H45.6322V6.32032H40.3518V7.38012H38.2341V5.2758L39.2777 4.2012H46.691L47.7351 5.2758V8.45472L46.691 9.51451L47.7351 10.5743V13.7532L46.691 14.7978ZM67.422 4.20068H50.8958L49.8532 5.27337V13.7508L50.8958 14.7987H67.4229L68.4684 13.7522V5.27528L67.422 4.20068ZM53.2455 11.4164H51.9689V12.6939H53.2455V11.4164ZM51.9689 6.30735H57.0665L57.6966 6.95612V10.1498L57.0665 10.7886H51.9689V6.30735ZM53.246 9.50871H56.4277V7.58484H53.246V9.50871ZM65.7248 6.30735H59.3493L58.7206 6.95373V11.1156L59.3493 11.7443H61.9024V12.6943H63.1794V11.7434H65.7248L66.3631 11.1146V6.95373L65.7248 6.30735ZM61.9024 10.4668H59.9976V7.58484H61.9024V10.4668ZM65.0947 10.4668H63.1794V7.58484H65.0947V10.4668Z" fill="#313131"/>
<path d="M81 1.5L81 17.5" stroke="#313131" stroke-linecap="round"/>
<path d="M93.6364 5.13068V3.36364H102.92V5.13068H99.3239V15H97.233V5.13068H93.6364ZM104.71 15V3.36364H112.278V5.13068H106.818V8.28977H111.886V10.0568H106.818V13.233H112.324V15H104.71ZM115.923 15H113.673L117.77 3.36364H120.372L124.474 15H122.224L119.116 5.75H119.026L115.923 15ZM115.997 10.4375H122.134V12.1307H115.997V10.4375ZM126.007 3.36364H128.587L132.041 11.7955H132.178L135.632 3.36364H138.212V15H136.189V7.00568H136.081L132.865 14.9659H131.354L128.138 6.98864H128.03V15H126.007V3.36364ZM150.467 7.28977H148.342C148.282 6.94129 148.17 6.63258 148.007 6.36364C147.844 6.09091 147.642 5.85985 147.399 5.67045C147.157 5.48106 146.88 5.33901 146.57 5.24432C146.263 5.14583 145.931 5.09659 145.575 5.09659C144.943 5.09659 144.382 5.25568 143.893 5.57386C143.405 5.88826 143.022 6.35038 142.746 6.96023C142.469 7.56629 142.331 8.30682 142.331 9.18182C142.331 10.072 142.469 10.822 142.746 11.4318C143.026 12.0379 143.409 12.4962 143.893 12.8068C144.382 13.1136 144.941 13.267 145.57 13.267C145.918 13.267 146.244 13.2216 146.547 13.1307C146.854 13.036 147.128 12.8977 147.371 12.7159C147.617 12.5341 147.823 12.3106 147.99 12.0455C148.161 11.7803 148.278 11.4773 148.342 11.1364L150.467 11.1477C150.388 11.7008 150.215 12.2197 149.95 12.7045C149.689 13.1894 149.346 13.6174 148.922 13.9886C148.498 14.3561 148.001 14.6439 147.433 14.8523C146.865 15.0568 146.234 15.1591 145.541 15.1591C144.518 15.1591 143.606 14.9223 142.803 14.4489C142 13.9754 141.367 13.2917 140.905 12.3977C140.443 11.5038 140.212 10.4318 140.212 9.18182C140.212 7.92803 140.445 6.85606 140.911 5.96591C141.376 5.07197 142.011 4.38826 142.814 3.91477C143.617 3.44129 144.526 3.20455 145.541 3.20455C146.189 3.20455 146.791 3.29545 147.348 3.47727C147.905 3.65909 148.401 3.92614 148.837 4.27841C149.272 4.62689 149.63 5.05492 149.911 5.5625C150.195 6.06629 150.38 6.64205 150.467 7.28977ZM162.795 9.18182C162.795 10.4356 162.561 11.5095 162.091 12.4034C161.625 13.2936 160.989 13.9754 160.182 14.4489C159.379 14.9223 158.468 15.1591 157.449 15.1591C156.43 15.1591 155.517 14.9223 154.71 14.4489C153.907 13.9716 153.271 13.2879 152.801 12.3977C152.335 11.5038 152.102 10.4318 152.102 9.18182C152.102 7.92803 152.335 6.85606 152.801 5.96591C153.271 5.07197 153.907 4.38826 154.71 3.91477C155.517 3.44129 156.43 3.20455 157.449 3.20455C158.468 3.20455 159.379 3.44129 160.182 3.91477C160.989 4.38826 161.625 5.07197 162.091 5.96591C162.561 6.85606 162.795 7.92803 162.795 9.18182ZM160.676 9.18182C160.676 8.29924 160.538 7.55492 160.261 6.94886C159.989 6.33902 159.61 5.87879 159.125 5.56818C158.64 5.25379 158.081 5.09659 157.449 5.09659C156.816 5.09659 156.258 5.25379 155.773 5.56818C155.288 5.87879 154.907 6.33902 154.631 6.94886C154.358 7.55492 154.222 8.29924 154.222 9.18182C154.222 10.0644 154.358 10.8106 154.631 11.4205C154.907 12.0265 155.288 12.4867 155.773 12.8011C156.258 13.1117 156.816 13.267 157.449 13.267C158.081 13.267 158.64 13.1117 159.125 12.8011C159.61 12.4867 159.989 12.0265 160.261 11.4205C160.538 10.8106 160.676 10.0644 160.676 9.18182ZM168.732 15H164.788V3.36364H168.811C169.966 3.36364 170.959 3.59659 171.788 4.0625C172.622 4.52462 173.262 5.18939 173.709 6.05682C174.156 6.92424 174.379 7.96212 174.379 9.17045C174.379 10.3826 174.154 11.4242 173.703 12.2955C173.256 13.1667 172.61 13.8352 171.766 14.3011C170.925 14.767 169.913 15 168.732 15ZM166.896 13.1761H168.629C169.44 13.1761 170.116 13.0284 170.658 12.733C171.199 12.4337 171.607 11.9886 171.879 11.3977C172.152 10.803 172.288 10.0606 172.288 9.17045C172.288 8.2803 172.152 7.54167 171.879 6.95455C171.607 6.36364 171.203 5.92235 170.669 5.63068C170.139 5.33523 169.48 5.1875 168.692 5.1875H166.896V13.1761ZM176.382 15V3.36364H183.95V5.13068H178.49V8.28977H183.558V10.0568H178.49V13.233H183.996V15H176.382Z" fill="#313131"/>
</svg>
