<svg width="14" height="17" viewBox="0 0 14 17" fill="none" xmlns="http://www.w3.org/2000/svg">
<path d="M12.2305 8.49965L4.90093 1.16845C4.74733 1.01485 4.74733 0.766847 4.90093 0.613247C5.05453 0.459647 5.30253 0.459647 5.45613 0.613247L13.0625 8.22285C13.2161 8.37645 13.2161 8.62445 13.0625 8.77805L5.45453 16.386C5.37773 16.4628 5.27693 16.5012 5.17773 16.5012C5.07693 16.5012 4.97773 16.4628 4.90093 16.386C4.74733 16.2324 4.74733 15.9844 4.90093 15.8308L12.2305 8.49965Z" fill="#313131"/>
<path d="M8.26716 8.49965L0.937555 1.16845C0.783956 1.01485 0.783956 0.766847 0.937555 0.613247C1.09116 0.459647 1.33916 0.459647 1.49276 0.613247L9.09916 8.22285C9.25276 8.37645 9.25276 8.62445 9.09916 8.77805L1.49116 16.386C1.41436 16.4628 1.31356 16.5012 1.21436 16.5012C1.11355 16.5012 1.01436 16.4628 0.937555 16.386C0.783956 16.2324 0.783956 15.9844 0.937555 15.8308L8.26716 8.49965Z" fill="#313131"/>
</svg>
