<svg width="9" height="10" viewBox="0 0 9 10" fill="none" xmlns="http://www.w3.org/2000/svg">
<path fill-rule="evenodd" clip-rule="evenodd" d="M1.28571 4.375V3.125C1.28571 1.39911 2.7248 0 4.5 0C6.27519 0 7.71429 1.39911 7.71429 3.125V4.375C8.42439 4.375 9 4.93464 9 5.625V8.75C9 9.44038 8.42439 10 7.71429 10H1.28571C0.575634 10 0 9.44038 0 8.75V5.625C0 4.93464 0.575634 4.375 1.28571 4.375ZM6.42857 3.125V4.375H2.57143V3.125C2.57143 2.08947 3.43488 1.25 4.5 1.25C5.56515 1.25 6.42857 2.08947 6.42857 3.125Z" fill="#A5ACB1"/>
</svg>
