<svg width="10" height="8" viewBox="0 0 10 8" fill="none" xmlns="http://www.w3.org/2000/svg">
<path fill-rule="evenodd" clip-rule="evenodd" d="M9.68532 0.332665H9.69247C9.78993 0.437977 9.86728 0.563167 9.92005 0.701042C9.97283 0.838917 10 0.986759 10 1.13607C10 1.28539 9.97283 1.43323 9.92005 1.5711C9.86728 1.70898 9.78993 1.83417 9.69247 1.93948L4.44607 7.66813C4.30271 7.82559 4.11952 7.93326 3.91973 7.97748C3.71994 8.0217 3.51256 8.00049 3.32389 7.91652C3.17288 7.86086 3.03586 7.76785 2.92362 7.64484L0.300417 4.77275C0.107917 4.5607 0 4.27489 0 3.97711C0 3.67933 0.107917 3.39352 0.300417 3.18146C0.39604 3.07726 0.509663 2.99457 0.634772 2.93816C0.759881 2.88174 0.894015 2.8527 1.02948 2.8527C1.16495 2.8527 1.29908 2.88174 1.42419 2.93816C1.5493 2.99457 1.66292 3.07726 1.75854 3.18146L3.70271 5.28507L8.23434 0.332665C8.32949 0.227947 8.44274 0.144658 8.5676 0.0875743C8.69245 0.0304904 8.82646 0.000734591 8.96192 1.34306e-05C9.09739 -0.00070773 9.23165 0.02762 9.35702 0.0833719C9.48238 0.139124 9.59638 0.221203 9.69247 0.324903L9.68532 0.332665Z" fill="#5CCF54"/>
</svg>
