<svg width="66" height="64" viewBox="0 0 66 64" fill="none" xmlns="http://www.w3.org/2000/svg">
<path d="M52.5451 26.3581C52.3879 25.1092 51.232 24.1702 49.9774 24.2724C48.7184 24.3709 47.8288 25.4661 47.9903 26.7186L48.3094 29.1925C48.3907 29.8227 47.9442 30.3723 47.3152 30.4255C46.6851 30.4709 46.1072 30.0014 46.0259 29.3713L44.9924 21.3583C44.7987 19.8568 43.4134 18.7315 41.9042 18.8496C40.3949 18.9678 39.3246 20.2853 39.5183 21.7868L40.4033 28.6484C40.488 29.2744 40.0415 29.824 39.4125 29.8772C38.7869 29.9262 38.2089 29.4567 38.1277 28.8266L36.9462 19.6975C36.7526 18.196 35.3673 17.0707 33.858 17.1889C32.3565 17.3064 31.2863 18.6239 31.4755 20.1218L32.8021 30.4065C32.8833 31.0366 32.4368 31.5863 31.8112 31.6353C31.1822 31.6884 30.6033 31.2112 30.523 30.5888L27.3974 6.35529C27.2037 4.85382 25.8184 3.72853 24.3091 3.84668C22.7998 3.96483 21.7296 5.28234 21.9267 6.77962L25.8811 37.4391C25.958 38.0657 25.5159 38.6189 24.8825 38.6685C24.5853 38.6918 24.2809 38.5977 24.0383 38.4006L17.5309 33.1146C16.075 31.932 13.9792 32.0961 12.8578 33.4765C11.7331 34.8612 12.002 36.9461 13.4579 38.1288L29.3976 51.0767C32.6535 53.7215 36.6891 55.0008 40.7712 54.6813C44.8533 54.3617 48.4815 52.4825 50.9969 49.3859C53.243 46.6208 54.3818 43.1094 54.1919 39.4938L52.5451 26.3581Z" fill="white"/>
<path fill-rule="evenodd" clip-rule="evenodd" d="M54.3716 26.2191L55.9098 38.1452C57.1219 47.543 50.4483 55.7586 41.005 56.4939C36.2816 56.8637 31.7626 55.2961 28.2729 52.4614L12.3331 39.5134C10.0699 37.675 9.65347 34.4464 11.402 32.2939C13.147 30.1456 16.3924 29.8916 18.6556 31.73L23.8439 35.9445L20.1012 6.92645C19.7781 4.42141 21.5572 2.23115 24.0787 2.02983C26.5968 1.83271 28.8998 3.70341 29.2229 6.20845L30.6046 16.921C31.3223 16.0554 32.3842 15.4694 33.6276 15.372C35.8407 15.1988 37.8889 16.6258 38.5723 18.6783C39.2909 17.7576 40.3834 17.1338 41.6704 17.037C44.1919 16.8357 46.4948 18.7064 46.8145 21.2156L47.14 23.7087C47.784 23.006 48.6913 22.5382 49.7392 22.4561C52.007 22.2786 54.0806 23.963 54.3716 26.2191ZM49.9774 24.2724C51.232 24.1702 52.3879 25.1092 52.5451 26.3581L54.1919 39.4938C54.3818 43.1094 53.243 46.6208 50.9969 49.3859C48.4815 52.4825 44.8533 54.3617 40.7712 54.6813C36.6891 55.0008 32.6535 53.7215 29.3976 51.0767L13.4579 38.1288C12.002 36.9461 11.7331 34.8612 12.8578 33.4765C13.9792 32.0961 16.075 31.932 17.5309 33.1146L24.0383 38.4006C24.2809 38.5977 24.5853 38.6918 24.8825 38.6685C25.5159 38.6189 25.958 38.0657 25.8811 37.4391L21.9267 6.77962C21.7296 5.28234 22.7998 3.96483 24.3091 3.84668C25.8184 3.72853 27.2037 4.85382 27.3974 6.35529L30.523 30.5888C30.6033 31.2112 31.1822 31.6884 31.8112 31.6353C32.4368 31.5863 32.8833 31.0366 32.8021 30.4065L31.4755 20.1218C31.2863 18.6239 32.3565 17.3064 33.858 17.1889C35.3673 17.0707 36.7526 18.196 36.9462 19.6975L38.1277 28.8266C38.2089 29.4567 38.7869 29.9262 39.4125 29.8772C40.0415 29.824 40.488 29.2744 40.4033 28.6484L39.5183 21.7868C39.3246 20.2853 40.3949 18.9678 41.9042 18.8496C43.4134 18.7315 44.7987 19.8568 44.9924 21.3583L46.0259 29.3713C46.1072 30.0014 46.6851 30.4709 47.3152 30.4255C47.9442 30.3723 48.3907 29.8227 48.3094 29.1925L47.9903 26.7186C47.8288 25.4661 48.7184 24.3709 49.9774 24.2724Z" fill="black"/>
</svg>
