<svg width="40" height="40" viewBox="0 0 40 40" fill="none" xmlns="http://www.w3.org/2000/svg">
<circle cx="20" cy="20" r="20" fill="#E6F2FA"/>
<path d="M18.6182 27.9519L18.6175 27.9513L13.9082 23.733C13.6604 23.4979 13.3521 23.4285 13.1122 23.4285H10.1292C9.53952 23.4285 9.25471 23.2819 9.1062 23.1276C8.95182 22.9672 8.8 22.6486 8.8 21.9987V18.0014C8.8 17.3515 8.95182 17.033 9.10619 16.8726C9.25469 16.7183 9.53951 16.5717 10.1292 16.5717H13.1122C13.3518 16.5717 13.659 16.5024 13.9064 16.2689L18.6147 12.0916L18.6152 12.0911C19.1738 11.5946 19.2859 11.57 19.4397 11.57C19.567 11.57 19.6557 11.6169 19.7176 11.6828C19.7838 11.7534 19.8349 11.8642 19.8349 12.0054V28.0249C19.8349 28.2605 19.6964 28.4 19.4598 28.4C19.2544 28.4 19.0476 28.3374 18.6182 27.9519Z" stroke="#313131" stroke-width="1.6"/>
<path d="M30.6348 22.485L25.6348 17.485M30.6348 17.485L25.6348 22.485" stroke="#313131" stroke-width="1.6" stroke-linecap="round"/>
</svg>
