<svg width="48" height="48" viewBox="0 0 48 48" fill="none" xmlns="http://www.w3.org/2000/svg">
<circle cx="24" cy="24" r="24" fill="#E6F2FA"/>
<path d="M22.4597 32.6653L22.459 32.6647L17.356 28.0937C17.103 27.8534 16.787 27.7815 16.5388 27.7815H13.3069C12.6577 27.7815 12.3285 27.62 12.1504 27.435C11.9665 27.2439 11.8 26.8789 11.8 26.1657V21.8348C11.8 21.1217 11.9665 20.7566 12.1504 20.5655C12.3284 20.3806 12.6577 20.2191 13.3069 20.2191H16.5388C16.7867 20.2191 17.1016 20.1473 17.3542 19.9085L22.4561 15.3819L22.4567 15.3814C23.0605 14.8447 23.1994 14.8 23.3942 14.8C23.6671 14.8 23.8892 15.0027 23.8892 15.3384V32.6947C23.8892 32.9865 23.7096 33.1679 23.416 33.1679C23.1696 33.1679 22.9301 33.0877 22.4597 32.6653Z" stroke="#313131" stroke-width="1.6"/>
<path d="M36.689 27.4839L29.689 20.484M36.689 20.4839L29.689 27.4839" stroke="#313131" stroke-width="1.6" stroke-linecap="round"/>
</svg>
