<svg width="8" height="10" viewBox="0 0 8 10" fill="none" xmlns="http://www.w3.org/2000/svg">
<path d="M1.74199 10C1.46289 9.99846 1.18728 9.94167 0.933211 9.83335C0.658426 9.71979 0.424312 9.53448 0.258831 9.29955C0.0933493 9.06462 0.00349559 8.78999 0 8.50848V1.49249C0.00349559 1.21098 0.0933493 0.936353 0.258831 0.701421C0.424312 0.466489 0.658426 0.281179 0.933211 0.167623C1.24938 0.02761 1.60115 -0.0263174 1.94843 0.0119863C2.2957 0.0502899 2.62452 0.179284 2.8974 0.384269L7.43014 3.89226C7.60789 4.02493 7.75143 4.19347 7.8501 4.38534C7.94876 4.57722 8 4.78748 8 5.00049C8 5.21349 7.94876 5.42376 7.8501 5.61563C7.75143 5.8075 7.60789 5.97604 7.43014 6.10871L2.8974 9.6167C2.57067 9.86512 2.16266 10.0005 1.74199 10Z" fill="#00B6F2"/>
</svg>
