<svg width="14" height="25" viewBox="0 0 14 25" fill="none" xmlns="http://www.w3.org/2000/svg">
<path d="M4.95455 17.4545V17.3182C4.9697 15.8712 5.12121 14.7197 5.40909 13.8636C5.69697 13.0076 6.10606 12.3144 6.63636 11.7841C7.16667 11.2538 7.80303 10.7652 8.54545 10.3182C8.99242 10.0455 9.39394 9.72348 9.75 9.35227C10.1061 8.97348 10.3864 8.53788 10.5909 8.04545C10.803 7.55303 10.9091 7.00758 10.9091 6.40909C10.9091 5.66667 10.7348 5.02273 10.3864 4.47727C10.0379 3.93182 9.57197 3.51136 8.98864 3.21591C8.4053 2.92045 7.75758 2.77273 7.04545 2.77273C6.42424 2.77273 5.82576 2.90151 5.25 3.15909C4.67424 3.41667 4.19318 3.82197 3.80682 4.375C3.42045 4.92803 3.19697 5.65151 3.13636 6.54545H0.272727C0.333333 5.25758 0.666667 4.1553 1.27273 3.23864C1.88636 2.32197 2.69318 1.62121 3.69318 1.13636C4.70076 0.651514 5.81818 0.40909 7.04545 0.40909C8.37879 0.40909 9.53788 0.674241 10.5227 1.20454C11.5152 1.73485 12.2803 2.46212 12.8182 3.38636C13.3636 4.3106 13.6364 5.36364 13.6364 6.54545C13.6364 7.37879 13.5076 8.13258 13.25 8.80682C13 9.48106 12.6364 10.0833 12.1591 10.6136C11.6894 11.1439 11.1212 11.6136 10.4545 12.0227C9.78788 12.4394 9.25379 12.8788 8.85227 13.3409C8.45076 13.7955 8.15909 14.3371 7.97727 14.9659C7.79545 15.5947 7.69697 16.3788 7.68182 17.3182V17.4545H4.95455ZM6.40909 24.1818C5.84848 24.1818 5.36742 23.9811 4.96591 23.5795C4.56439 23.178 4.36364 22.697 4.36364 22.1364C4.36364 21.5758 4.56439 21.0947 4.96591 20.6932C5.36742 20.2917 5.84848 20.0909 6.40909 20.0909C6.9697 20.0909 7.45076 20.2917 7.85227 20.6932C8.25379 21.0947 8.45455 21.5758 8.45455 22.1364C8.45455 22.5076 8.35985 22.8485 8.17045 23.1591C7.98864 23.4697 7.74242 23.7197 7.43182 23.9091C7.12879 24.0909 6.78788 24.1818 6.40909 24.1818Z" fill="#4E3B7F"/>
</svg>
