<svg width="27" height="34" viewBox="0 0 27 34" fill="none" xmlns="http://www.w3.org/2000/svg">
<path d="M19.4199 11.6723C20.9042 13.1566 21.7218 15.133 21.7218 17.2284C21.7218 19.3318 20.9042 21.3003 19.4199 22.7846C17.9592 24.2453 16.0296 25.0603 13.9639 25.0858C13.9086 25.0865 13.8638 25.0417 13.8638 24.9864V21.6321C13.8638 21.5551 13.7805 21.507 13.7138 21.5454L9.74769 23.8304C9.74545 23.8316 9.74091 23.8323 9.73832 23.8323V23.8323C9.73571 23.8323 9.73514 23.833 9.73288 23.8343L5.73589 26.15L4.02033 27.1429C3.95374 27.1814 3.95379 27.2776 4.02041 27.316L13.7138 32.9134C13.7804 32.9519 13.8638 32.9038 13.8638 32.8268V29.4647C13.8638 29.4095 13.9087 29.3647 13.9639 29.3643C17.1726 29.3386 20.1738 28.079 22.4441 25.8087C24.738 23.5148 26 20.4748 26 17.2284C26 14.2316 24.9165 11.4062 22.9427 9.18486C22.9113 9.14954 22.8593 9.14131 22.8184 9.16499L19.1839 11.2688C19.1245 11.3031 19.1166 11.3858 19.1674 11.4318C19.2529 11.5093 19.3371 11.5894 19.4199 11.6723Z" stroke="#313131" stroke-width="1.5"/>
<path d="M7.4285 22.0719C7.48512 22.0391 7.4954 21.9616 7.45012 21.9143C6.0466 20.4491 5.27031 18.5269 5.27031 16.4906C5.27031 14.3872 6.08786 12.4187 7.57215 10.9344C8.79119 9.70759 10.3444 8.94411 12.0239 8.71084C12.0834 8.70257 12.1361 8.74914 12.1361 8.80927V12.2422C12.1361 12.2503 12.1447 12.2556 12.152 12.252V12.252L21.956 6.56817C22.0225 6.52961 22.0225 6.43356 21.9559 6.39508L12.2862 0.805722C12.2195 0.767187 12.1361 0.815296 12.1361 0.892299L12.1361 4.30965C12.1361 4.36177 12.096 4.40512 12.0441 4.40968C9.21383 4.65842 6.5897 5.87651 4.55595 7.91026C2.26204 10.2042 1 13.2442 1 16.4906C1 19.3035 1.95671 21.9764 3.70844 24.1321C3.7393 24.17 3.79326 24.1798 3.83559 24.1552L7.4285 22.0719Z" stroke="#313131" stroke-width="1.5"/>
</svg>
