<svg width="26.799805" height="34.038574" viewBox="0 0 26.7998 34.0386" fill="none" xmlns="http://www.w3.org/2000/svg" xmlns:xlink="http://www.w3.org/1999/xlink">
	<desc>
			Created with Pixso.
	</desc>
	<defs/>
	<path id="&lt;Path&gt;" d="M21.72 17.39C21.72 19.52 20.89 21.51 19.39 23.01C17.91 24.49 15.95 25.31 13.86 25.34C13.81 25.34 13.76 25.3 13.76 25.24L13.76 21.84C13.76 21.77 13.68 21.72 13.61 21.76L9.6 24.07L9.59 24.07L9.58 24.07L5.54 26.42L3.8 27.42C3.73 27.46 3.73 27.56 3.8 27.6L13.61 33.26C13.68 33.3 13.76 33.25 13.76 33.17L13.76 29.77C13.76 29.71 13.81 29.67 13.86 29.67C17.11 29.64 20.15 28.37 22.45 26.07C24.77 23.75 26.04 20.67 26.04 17.39C26.04 14.35 24.95 11.5 22.95 9.25C22.92 9.21 22.87 9.2 22.83 9.23L19.15 11.36C19.09 11.39 19.08 11.48 19.13 11.52C19.22 11.6 19.3 11.68 19.39 11.77C20.89 13.27 21.72 15.27 21.72 17.39Z" stroke="#0D47AA" stroke-opacity="1.000000" stroke-width="1.500000"/>
	<path id="&lt;Path&gt;" d="M5.07 16.64C5.07 14.51 5.89 12.52 7.4 11.02C8.63 9.78 10.2 9 11.9 8.77C11.96 8.77 12.01 8.81 12.01 8.87L12.01 12.34L12.03 12.35L21.95 6.6C22.02 6.56 22.02 6.46 21.95 6.43L12.16 0.77C12.1 0.73 12.01 0.78 12.01 0.85L12.01 4.32C12.01 4.37 11.97 4.42 11.92 4.42C9.06 4.67 6.4 5.9 4.34 7.96C2.02 10.28 0.75 13.36 0.75 16.64C0.75 19.49 1.71 22.19 3.49 24.37C3.52 24.41 3.57 24.42 3.61 24.4L7.25 22.29C7.31 22.26 7.32 22.18 7.27 22.13C5.85 20.65 5.07 18.7 5.07 16.64Z" stroke="#0D47AA" stroke-opacity="1.000000" stroke-width="1.500000"/>
</svg>
