<svg width="26" height="26" viewBox="0 0 26 26" fill="none" xmlns="http://www.w3.org/2000/svg">
<path d="M12.7441 22.984C13.4841 22.984 14.0173 22.4399 14.0173 21.7109V4.35456C14.0173 3.62549 13.4841 3.01611 12.7224 3.01611C12.1892 3.01611 11.841 3.27727 11.2533 3.7996L6.13894 8.33725C6.07366 8.40257 5.97574 8.43521 5.86691 8.43521H2.63502C1.08983 8.43521 0.328125 9.20778 0.328125 10.8509V15.1818C0.328125 16.825 1.08983 17.5976 2.63502 17.5976H5.86691C5.97574 17.5976 6.07366 17.6302 6.13894 17.6955L11.2533 22.2767C11.7866 22.7555 12.211 22.984 12.7441 22.984ZM22.146 20.7642C22.5703 21.0471 23.0927 20.9383 23.3974 20.503C24.8337 18.5008 25.6716 15.8348 25.6716 13.049C25.6716 10.2524 24.8446 7.5864 23.3974 5.58417C23.0818 5.15981 22.5703 5.05099 22.146 5.33392C21.7324 5.61686 21.6671 6.15004 21.9936 6.61795C23.1796 8.35902 23.9197 10.6442 23.9197 13.049C23.9197 15.4539 23.2015 17.7608 21.9936 19.4801C21.678 19.948 21.7324 20.4812 22.146 20.7642ZM12.113 20.688C12.0586 20.688 11.9933 20.6553 11.928 20.5901L7.10744 16.2483C6.84623 16.0089 6.62862 15.9545 6.33482 15.9545H2.71121C2.28681 15.9545 2.08006 15.7586 2.08006 15.3233V10.7095C2.08006 10.2851 2.28681 10.0783 2.71121 10.0783H6.33482C6.62862 10.0783 6.83537 10.0348 7.10744 9.78452L11.928 5.41011C11.9824 5.36656 12.0477 5.32301 12.113 5.32301C12.211 5.32301 12.2653 5.38833 12.2653 5.47534V20.5247C12.2653 20.6227 12.211 20.688 12.113 20.688ZM17.8041 17.8261C18.1741 18.0872 18.7073 18.0002 19.0229 17.5758C19.8715 16.4332 20.383 14.7574 20.383 13.049C20.383 11.3406 19.8609 9.67569 19.0229 8.51135C18.7073 8.087 18.185 7.99994 17.8041 8.26106C17.3253 8.57663 17.2709 9.13164 17.6191 9.61041C18.2503 10.4592 18.6311 11.7541 18.6311 13.049C18.6311 14.3439 18.2285 15.6389 17.6082 16.4985C17.2818 16.9664 17.3362 17.4996 17.8041 17.8261Z" fill="#313131"/>
</svg>
