<svg width="26.000000" height="26.000000" viewBox="0 0 26 26" fill="none" xmlns="http://www.w3.org/2000/svg" xmlns:xlink="http://www.w3.org/1999/xlink">
	<desc>
			Created with Pixso.
	</desc>
	<defs>
		<clipPath id="clip7_3131">
			<rect id="speaker-2 1" rx="-0.500000" width="25.000000" height="25.000000" transform="translate(0.500000 0.500000)" fill="white" fill-opacity="0"/>
		</clipPath>
	</defs>
	<rect id="speaker-2 1" rx="-0.500000" width="25.000000" height="25.000000" transform="translate(0.500000 0.500000)" fill="#FFFFFF" fill-opacity="0"/>
	<g clip-path="url(#clip7_3131)">
		<path id="Vector" d="M12.74 22.98C13.48 22.98 14.01 22.43 14.01 21.71L14.01 4.35C14.01 3.62 13.48 3.01 12.72 3.01C12.18 3.01 11.84 3.27 11.25 3.79L6.13 8.33C6.07 8.4 5.97 8.43 5.86 8.43L2.63 8.43C1.08 8.43 0.32 9.2 0.32 10.85L0.32 15.18C0.32 16.82 1.08 17.59 2.63 17.59L5.86 17.59C5.97 17.59 6.07 17.63 6.13 17.69L11.25 22.27C11.78 22.75 12.21 22.98 12.74 22.98ZM22.14 20.76C22.57 21.04 23.09 20.93 23.39 20.5C24.83 18.5 25.67 15.83 25.67 13.04C25.67 10.25 24.84 7.58 23.39 5.58C23.08 5.15 22.57 5.05 22.14 5.33C21.73 5.61 21.66 6.14 21.99 6.61C23.17 8.35 23.91 10.64 23.91 13.04C23.91 15.45 23.2 17.76 21.99 19.48C21.67 19.94 21.73 20.48 22.14 20.76ZM12.11 20.68C12.05 20.68 11.99 20.65 11.92 20.58L7.1 16.24C6.84 16 6.62 15.95 6.33 15.95L2.71 15.95C2.28 15.95 2.08 15.75 2.08 15.32L2.08 10.7C2.08 10.28 2.28 10.07 2.71 10.07L6.33 10.07C6.62 10.07 6.83 10.03 7.1 9.78L11.92 5.41C11.98 5.36 12.04 5.32 12.11 5.32C12.21 5.32 12.26 5.38 12.26 5.47L12.26 20.52C12.26 20.62 12.21 20.68 12.11 20.68ZM17.8 17.82C18.17 18.08 18.7 18 19.02 17.57C19.87 16.43 20.38 14.75 20.38 13.04C20.38 11.34 19.86 9.67 19.02 8.51C18.7 8.08 18.18 8 17.8 8.26C17.32 8.57 17.27 9.13 17.61 9.61C18.25 10.45 18.63 11.75 18.63 13.04C18.63 14.34 18.22 15.63 17.6 16.49C17.28 16.96 17.33 17.49 17.8 17.82Z" fill="#0D47AA" fill-opacity="1.000000" fill-rule="evenodd"/>
	</g>
</svg>
