<svg width="32" height="32" viewBox="0 0 32 32" fill="none" xmlns="http://www.w3.org/2000/svg">
<path d="M15.6836 28.2878C16.5943 28.2878 17.2506 27.6181 17.2506 26.7208V5.35923C17.2506 4.46191 16.5943 3.71191 15.6568 3.71191C15.0006 3.71191 14.572 4.03334 13.8487 4.6762L7.55412 10.261C7.47377 10.3414 7.35326 10.3816 7.21932 10.3816H3.2416C1.33983 10.3816 0.402344 11.3324 0.402344 13.3548V18.6851C0.402344 20.7075 1.33983 21.6584 3.2416 21.6584H7.21932C7.35326 21.6584 7.47377 21.6985 7.55412 21.7789L13.8487 27.4173C14.505 28.0065 15.0274 28.2878 15.6836 28.2878ZM27.2551 25.5557C27.7774 25.9039 28.4203 25.77 28.7953 25.2343C30.563 22.77 31.5943 19.4887 31.5943 16.0601C31.5943 12.6181 30.5765 9.33689 28.7953 6.8726C28.4069 6.35031 27.7774 6.21637 27.2551 6.5646C26.7461 6.91283 26.6657 7.56906 27.0675 8.14494C28.5273 10.2878 29.4382 13.1003 29.4382 16.0601C29.4382 19.0199 28.5542 21.8592 27.0675 23.9753C26.6791 24.5512 26.7461 25.2075 27.2551 25.5557ZM14.9068 25.4619C14.8398 25.4619 14.7595 25.4217 14.6791 25.3414L8.74611 19.9976C8.42463 19.703 8.1568 19.636 7.7952 19.636H3.33537C2.81303 19.636 2.55857 19.3949 2.55857 18.8592V13.1807C2.55857 12.6584 2.81303 12.4039 3.33537 12.4039H7.7952C8.1568 12.4039 8.41126 12.3503 8.74611 12.0423L14.6791 6.65837C14.7461 6.60477 14.8265 6.55117 14.9068 6.55117C15.0274 6.55117 15.0943 6.63157 15.0943 6.73866V25.261C15.0943 25.3816 15.0274 25.4619 14.9068 25.4619ZM21.9113 21.9396C22.3666 22.261 23.0229 22.1539 23.4113 21.6316C24.4558 20.2253 25.0853 18.1628 25.0853 16.0601C25.0853 13.9575 24.4426 11.9083 23.4113 10.4753C23.0229 9.953 22.38 9.84586 21.9113 10.1672C21.322 10.5556 21.255 11.2387 21.6836 11.828C22.4604 12.8726 22.9291 14.4664 22.9291 16.0601C22.9291 17.6539 22.4336 19.2476 21.6702 20.3056C21.2684 20.8815 21.3354 21.5378 21.9113 21.9396Z" fill="#4E3B7F"/>
</svg>
