<svg width="30" height="52" viewBox="0 0 30 52" fill="none" xmlns="http://www.w3.org/2000/svg">
<path d="M5.90277 21.8101L13.2286 26.0743L5.90277 30.2898C4.69818 30.9965 3.71484 32.7265 3.71484 34.1642V41.9372C3.71484 43.3749 4.84568 44.5201 6.24694 44.5201H23.7503C25.1516 44.5201 26.2824 43.3749 26.2824 41.9372V34.1642C26.2824 32.7265 25.2991 30.9965 24.0945 30.2898L16.7441 26.0743L24.0945 21.8101C25.2991 21.1035 26.2824 19.3491 26.2824 17.9114V10.0653C26.2824 8.62762 25.1516 7.45801 23.7503 7.45801H6.24694C4.84568 7.45801 3.71484 8.62762 3.71484 10.0653V17.9114C3.71484 19.3491 4.69818 21.1035 5.90277 21.8101Z" fill="#D5E1FF"/>
<path d="M4.52734 41.9363V34.1633C4.52734 33.018 5.36318 31.5316 6.32194 30.9712L14.1641 26.4877C14.5574 26.244 14.5574 25.8785 14.1641 25.6592L6.32194 21.127C5.38776 20.5422 4.52734 19.0558 4.52734 17.9105V10.0644C4.52734 9.06534 5.31401 8.26123 6.24818 8.26123H23.7516C24.6858 8.26123 25.4479 9.06534 25.4479 10.0644V17.9105C25.4479 19.0558 24.612 20.5422 23.6533 21.127L15.8357 25.6592C15.4424 25.8785 15.4424 26.244 15.8357 26.4877L23.6778 30.9956C24.612 31.5316 25.4479 33.018 25.4479 34.1633V41.9363C25.4479 42.911 24.6858 43.7151 23.7516 43.7151H6.24818C5.31401 43.7151 4.52734 42.911 4.52734 41.9363Z" fill="#D5E1FF"/>
<path d="M4.52734 10.0635V17.9096C4.52734 19.0549 5.38776 20.5413 6.32194 21.1261L14.1641 25.6583C14.7786 25.9994 15.2703 25.9751 15.8357 25.6583L23.6533 21.1261C24.612 20.5413 25.4479 19.0549 25.4479 17.9096V10.0635C23.9728 10.0635 7.08402 10.0635 4.52734 10.0635Z" fill="#E6BFB5"/>
<path d="M26.6762 5.06982V6.77551C26.6762 7.38468 26.1845 7.89639 25.5699 7.89639H4.47735C3.86276 7.89639 3.37109 7.38468 3.37109 6.77551V5.06982H26.6762Z" fill="#D79B8C"/>
<path d="M3.32031 46.955V45.2249C3.32031 44.6158 3.81198 44.1284 4.42657 44.1284H25.5192C26.1337 44.1284 26.6254 44.6158 26.6254 45.2249V46.955H3.32031Z" fill="#44475A"/>
<path d="M25.8368 44.9567C25.8368 45.2247 25.6401 45.4196 25.3943 45.4196H4.49834C4.2525 45.4196 4.03125 45.2247 4.03125 44.9567C4.03125 44.713 4.2525 44.5181 4.49834 44.5181H25.3943C25.6401 44.5181 25.8368 44.713 25.8368 44.9567Z" fill="#666B84"/>
<path d="M3.32031 46.956V45.2259C3.32031 44.6167 3.81198 44.1294 4.42657 44.1294H25.5192C26.1337 44.1294 26.6254 44.6167 26.6254 45.2259V46.956H3.32031Z" fill="#D79B8C"/>
<path d="M29.3918 0C29.7232 0 29.9918 0.268629 29.9918 0.6V3.97181C29.9918 4.58098 29.5001 5.06832 28.8855 5.06832H1.10625C0.491669 5.06832 0 4.58098 0 3.97181V0.6C0 0.268629 0.268629 0 0.6 0H29.3918Z" fill="#E0AEA2"/>
<path d="M0.700001 52C0.313402 52 0 51.6866 0 51.3V48.0282C0 47.419 0.491669 46.9316 1.10625 46.9316H28.8855C29.5001 46.9316 29.9918 47.419 29.9918 48.0282V51.3C29.9918 51.6866 29.6784 52 29.2918 52H0.700001Z" fill="#E0AEA2"/>
<g style="mix-blend-mode:overlay">
<path d="M26.7445 6.774V5.06832H28.9159C29.5105 5.06832 30.0016 4.58098 30.0016 3.97181V0.6C30.0016 0.268629 29.733 0 29.4016 0H26.0207V3.97181C26.0207 4.58098 25.6846 5.06832 25.2452 5.06832H23.6425V6.774C23.6425 7.38318 23.2806 7.89488 22.8411 7.89488H22.5309C23.0221 8.35785 23.3581 9.16196 23.3581 10.0635V17.9097C23.3581 19.3473 22.6343 21.1018 21.7813 21.8084L16.5078 26.0726L21.7813 30.2881C22.6343 30.9947 23.3581 32.7248 23.3581 34.1624V41.9355C23.3581 42.8614 23.0221 43.6655 22.5051 44.1285H22.8153C23.2547 44.1285 23.5908 44.6158 23.5908 45.225V46.9307H25.2452C25.6846 46.9307 26.0207 47.418 26.0207 48.0272V51.999H29.4016C29.733 51.999 30.0016 51.7304 30.0016 51.399V48.0272C30.0016 47.418 29.5105 46.9307 28.9159 46.9307H26.6928V45.225C26.6928 44.6158 26.2016 44.1285 25.5812 44.1285H25.1676C25.8656 43.6655 26.3309 42.8614 26.3309 41.9355V34.1624C26.3309 32.7248 25.3744 30.9947 24.1853 30.2881L16.9731 26.0726L24.1853 21.8084C25.3744 21.1018 26.3309 19.3473 26.3309 17.9097V10.0635C26.3309 9.16196 25.8914 8.35785 25.2193 7.89488H25.6329C26.2533 7.89488 26.7445 7.38318 26.7445 6.774Z" fill="#0C2732"/>
</g>
</svg>
