<svg width="32" height="33" viewBox="0 0 32 33" fill="none" xmlns="http://www.w3.org/2000/svg">
<path d="M30.7528 7.17293C29.5976 5.79981 27.465 5.23975 23.3921 5.23975H8.60756C4.4415 5.23975 2.27269 5.836 1.12194 7.29787C0 8.72312 0 10.8232 0 13.7299V19.2699C0 24.901 1.33119 27.7601 8.60756 27.7601H23.3922C26.9242 27.7601 28.8813 27.2658 30.1475 26.0541C31.446 24.8114 32 22.7825 32 19.2699V13.7299C32 10.6646 31.9132 8.55212 30.7528 7.17293ZM20.5441 17.2647L13.8305 20.7735C13.6804 20.8519 13.5162 20.8909 13.3524 20.8909C13.1667 20.8909 12.9816 20.8409 12.8176 20.7416C12.5087 20.5545 12.3201 20.2197 12.3201 19.8586V12.8636C12.3201 12.5032 12.5082 12.1687 12.8164 11.9814C13.1248 11.7942 13.5083 11.7814 13.8281 11.9476L20.5417 15.4337C20.8833 15.611 21.0978 15.9636 21.0983 16.3484C21.0987 16.7335 20.8852 17.0866 20.5441 17.2647Z" fill="#E237A7"/>
</svg>
