<svg width="383" height="206" viewBox="0 0 383 206" fill="none" xmlns="http://www.w3.org/2000/svg">
<g filter="url(#filter0_ddddd_4659_15245)">
<path d="M310.157 200C346.71 200 376.365 170.379 376.365 133.746C376.365 98.2553 348.448 69.2863 313.416 67.6014C309.179 50.644 293.808 38.0889 275.559 38.0889C267.141 38.0889 259.32 40.7521 252.965 45.3176C247.479 20.5336 225.428 2 199.086 2C179.316 2 161.936 12.4354 152.214 28.034C144.61 25.0448 136.354 23.3599 127.718 23.3599C91.1112 23.3599 61.5104 53.0354 61.5104 89.6135C61.5104 90.157 61.5104 90.7005 61.5647 91.244C60.0439 91.1353 58.5775 91.081 57.0567 91.081C27.0214 91.081 2.63477 115.484 2.63477 145.54C2.63477 175.651 27.0214 200 57.0567 200H310.157Z" fill="#ECF8FF"/>
</g>
<defs>
<filter id="filter0_ddddd_4659_15245" x="0.634766" y="0" width="381.73" height="206" filterUnits="userSpaceOnUse" color-interpolation-filters="sRGB">
<feFlood flood-opacity="0" result="BackgroundImageFix"/>
<feColorMatrix in="SourceAlpha" type="matrix" values="0 0 0 0 0 0 0 0 0 0 0 0 0 0 0 0 0 0 127 0" result="hardAlpha"/>
<feOffset dx="2" dy="2"/>
<feGaussianBlur stdDeviation="2"/>
<feComposite in2="hardAlpha" operator="out"/>
<feColorMatrix type="matrix" values="0 0 0 0 0.823529 0 0 0 0 0.937255 0 0 0 0 1 0 0 0 1 0"/>
<feBlend mode="normal" in2="BackgroundImageFix" result="effect1_dropShadow_4659_15245"/>
<feColorMatrix in="SourceAlpha" type="matrix" values="0 0 0 0 0 0 0 0 0 0 0 0 0 0 0 0 0 0 127 0" result="hardAlpha"/>
<feOffset dx="2" dy="2"/>
<feGaussianBlur stdDeviation="2"/>
<feComposite in2="hardAlpha" operator="out"/>
<feColorMatrix type="matrix" values="0 0 0 0 0.823529 0 0 0 0 0.937255 0 0 0 0 1 0 0 0 1 0"/>
<feBlend mode="normal" in2="effect1_dropShadow_4659_15245" result="effect2_dropShadow_4659_15245"/>
<feColorMatrix in="SourceAlpha" type="matrix" values="0 0 0 0 0 0 0 0 0 0 0 0 0 0 0 0 0 0 127 0" result="hardAlpha"/>
<feOffset dx="2" dy="2"/>
<feGaussianBlur stdDeviation="2"/>
<feComposite in2="hardAlpha" operator="out"/>
<feColorMatrix type="matrix" values="0 0 0 0 0.823529 0 0 0 0 0.937255 0 0 0 0 1 0 0 0 1 0"/>
<feBlend mode="normal" in2="effect2_dropShadow_4659_15245" result="effect3_dropShadow_4659_15245"/>
<feColorMatrix in="SourceAlpha" type="matrix" values="0 0 0 0 0 0 0 0 0 0 0 0 0 0 0 0 0 0 127 0" result="hardAlpha"/>
<feOffset dx="2" dy="2"/>
<feGaussianBlur stdDeviation="2"/>
<feComposite in2="hardAlpha" operator="out"/>
<feColorMatrix type="matrix" values="0 0 0 0 0.823529 0 0 0 0 0.937255 0 0 0 0 1 0 0 0 1 0"/>
<feBlend mode="normal" in2="effect3_dropShadow_4659_15245" result="effect4_dropShadow_4659_15245"/>
<feColorMatrix in="SourceAlpha" type="matrix" values="0 0 0 0 0 0 0 0 0 0 0 0 0 0 0 0 0 0 127 0" result="hardAlpha"/>
<feOffset dx="2" dy="2"/>
<feGaussianBlur stdDeviation="2"/>
<feComposite in2="hardAlpha" operator="out"/>
<feColorMatrix type="matrix" values="0 0 0 0 0.823529 0 0 0 0 0.937255 0 0 0 0 1 0 0 0 1 0"/>
<feBlend mode="normal" in2="effect4_dropShadow_4659_15245" result="effect5_dropShadow_4659_15245"/>
<feBlend mode="normal" in="SourceGraphic" in2="effect5_dropShadow_4659_15245" result="shape"/>
</filter>
</defs>
</svg>
