<svg width="36" height="36" viewBox="0 0 36 36" fill="none" xmlns="http://www.w3.org/2000/svg">
<path d="M22.8576 11.1994C22.3817 10.62 22.0251 9.94053 21.862 9.18115L13.0791 13.2885C13.5201 13.8927 13.8452 14.5789 14.0376 15.3237L22.8576 11.1994Z" fill="#4D65E5"/>
<path d="M14.0376 18.3286C13.8452 19.0734 13.5201 19.7607 13.0791 20.3637L19.594 23.4102C19.8021 22.6756 20.1194 21.986 20.5334 21.365L14.0376 18.3286Z" fill="#4D65E5"/>
<path d="M14.2504 16.8264C14.2504 16.3044 14.1626 15.8072 14.0377 15.3245C13.8454 14.5798 13.5203 13.8935 13.0793 13.2894C11.9869 11.7943 10.2364 10.811 8.25075 10.811C4.94213 10.8099 2.25 13.5088 2.25 16.8264C2.25 20.144 4.94213 22.8429 8.24963 22.8429C10.2352 22.8429 11.9858 21.8585 13.0781 20.3634C13.5191 19.7593 13.8443 19.073 14.0366 18.3283C14.1626 17.8445 14.2504 17.3473 14.2504 16.8264Z" fill="#4D65E5"/>
<path d="M26.5308 18.1475C24.0333 18.1475 21.8295 19.4266 20.5335 21.365C20.1183 21.9848 19.8022 22.6745 19.5941 23.4102C19.4152 24.0391 19.314 24.7006 19.314 25.3868C19.314 29.3783 22.5517 32.6262 26.532 32.6262C30.5122 32.6262 33.75 29.3772 33.75 25.3857C33.75 21.3942 30.5111 18.1475 26.5308 18.1475Z" fill="#4D65E5"/>
<path d="M26.5308 12.9623C29.1678 12.9623 31.312 10.8113 31.312 8.16863C31.312 5.526 29.1678 3.375 26.5308 3.375C23.8938 3.375 21.7495 5.52488 21.7495 8.16863C21.7495 8.51737 21.7911 8.85487 21.862 9.18225C22.0263 9.94162 22.3818 10.6211 22.8576 11.2005C23.7351 12.267 25.0469 12.9623 26.5308 12.9623Z" fill="#4D65E5"/>
</svg>
